Sintony-Regular.otf.ufo
<glyph name="exclam" format="1">
  <advance width="312"/>
  <unicode hex="0021"/>
  <outline>
    <contour>
      <point x="155" y="-8" type="curve" name="hr00"/>
      <point x="194" y="-8" smooth="yes"/>
      <point x="210" y="10" smooth="yes"/>
      <point x="210" y="53" type="curve" smooth="yes"/>
      <point x="210" y="97" smooth="yes"/>
      <point x="194" y="115" smooth="yes"/>
      <point x="155" y="115" type="curve" smooth="yes"/>
      <point x="118" y="115" smooth="yes"/>
      <point x="102" y="97" smooth="yes"/>
      <point x="102" y="53" type="curve" smooth="yes"/>
      <point x="102" y="10" smooth="yes"/>
      <point x="117" y="-8" smooth="yes"/>
    </contour>
    <contour>
      <point x="107" y="730" type="line"/>
      <point x="107" y="566" type="line"/>
      <point x="129" y="191" type="line"/>
      <point x="181" y="191" type="line"/>
      <point x="203" y="566" type="line"/>
      <point x="203" y="730" type="line"/>
    </contour>
  </outline>
</glyph>
<glyph name="quotedbl" format="1">
  <advance width="404"/>
  <unicode hex="0022"/>
  <outline>
    <contour>
      <point x="240" y="730" type="line" name="hr00"/>
      <point x="240" y="676" type="line"/>
      <point x="260" y="485" type="line"/>
      <point x="312" y="485" type="line"/>
      <point x="332" y="676" type="line"/>
      <point x="332" y="730" type="line"/>
    </contour>
    <contour>
      <point x="72" y="730" type="line"/>
      <point x="72" y="676" type="line"/>
      <point x="92" y="485" type="line"/>
      <point x="144" y="485" type="line"/>
      <point x="164" y="676" type="line"/>
      <point x="164" y="730" type="line"/>
    </contour>
  </outline>
</glyph>
<glyph name="numbersign" format="1">
  <advance width="800"/>
  <unicode hex="0023"/>
  <outline>
    <contour>
      <point x="432" y="-76" type="line" name="hr00"/>
      <point x="519" y="-76" type="line"/>
      <point x="564" y="174" type="line"/>
      <point x="677" y="174" type="line"/>
      <point x="689" y="244" type="line"/>
      <point x="577" y="244" type="line"/>
      <point x="621" y="485" type="line"/>
      <point x="732" y="485" type="line"/>
      <point x="744" y="555" type="line"/>
      <point x="633" y="555" type="line"/>
      <point x="679" y="805" type="line"/>
      <point x="592" y="805" type="line"/>
      <point x="546" y="555" type="line"/>
      <point x="323" y="555" type="line"/>
      <point x="369" y="805" type="line"/>
      <point x="282" y="805" type="line"/>
      <point x="236" y="555" type="line"/>
      <point x="123" y="555" type="line"/>
      <point x="111" y="485" type="line"/>
      <point x="224" y="485" type="line"/>
      <point x="180" y="244" type="line"/>
      <point x="68" y="244" type="line"/>
      <point x="56" y="174" type="line"/>
      <point x="167" y="174" type="line"/>
      <point x="122" y="-76" type="line"/>
      <point x="209" y="-76" type="line"/>
      <point x="254" y="174" type="line"/>
      <point x="477" y="174" type="line"/>
    </contour>
    <contour>
      <point x="311" y="485" type="line"/>
      <point x="534" y="485" type="line"/>
      <point x="490" y="244" type="line"/>
      <point x="267" y="244" type="line"/>
    </contour>
  </outline>
</glyph>
<glyph name="dollar" format="1">
  <advance width="630"/>
  <unicode hex="0024"/>
  <outline>
    <contour>
      <point x="363" y="318" type="line"/>
      <point x="436" y="305" smooth="yes"/>
      <point x="472" y="266" smooth="yes"/>
      <point x="472" y="200" type="curve" smooth="yes"/>
      <point x="472" y="104" smooth="yes"/>
      <point x="427" y="64" smooth="yes"/>
      <point x="317" y="64" type="curve" smooth="yes"/>
      <point x="204" y="64"/>
      <point x="155" y="107"/>
      <point x="155" y="206" type="curve"/>
      <point x="79" y="201" type="line"/>
      <point x="79" y="67"/>
      <point x="144" y="2"/>
      <point x="286" y="-6" type="curve"/>
      <point x="286" y="-113" type="line"/>
      <point x="347" y="-113" type="line"/>
      <point x="347" y="-6" type="line"/>
      <point x="488" y="1" smooth="yes"/>
      <point x="557" y="69" smooth="yes"/>
      <point x="557" y="200" type="curve" smooth="yes"/>
      <point x="557" y="316" smooth="yes"/>
      <point x="497" y="379" smooth="yes"/>
      <point x="369" y="397" type="curve" smooth="yes"/>
      <point x="272" y="410" type="line" smooth="yes"/>
      <point x="208" y="419" smooth="yes"/>
      <point x="176" y="458" smooth="yes"/>
      <point x="176" y="528" type="curve" smooth="yes" name="hr01"/>
      <point x="176" y="625" smooth="yes"/>
      <point x="218" y="665" smooth="yes"/>
      <point x="319" y="665" type="curve" smooth="yes"/>
      <point x="425" y="665"/>
      <point x="470" y="623"/>
      <point x="470" y="525" type="curve"/>
      <point x="546" y="530" type="line"/>
      <point x="546" y="662"/>
      <point x="484" y="726"/>
      <point x="347" y="735" type="curve"/>
      <point x="347" y="843" type="line"/>
      <point x="286" y="843" type="line"/>
      <point x="286" y="735" type="line"/>
      <point x="150" y="727" smooth="yes"/>
      <point x="90" y="663" smooth="yes"/>
      <point x="90" y="528" type="curve" smooth="yes"/>
      <point x="90" y="411" smooth="yes"/>
      <point x="144" y="351" smooth="yes"/>
      <point x="266" y="333" type="curve" smooth="yes"/>
    </contour>
  </outline>
</glyph>
<glyph name="ampersand" format="1">
  <advance width="634"/>
  <unicode hex="0026"/>
  <outline>
    <contour>
      <point x="480" y="602" type="line"/>
      <point x="462" y="698" smooth="yes"/>
      <point x="397" y="744" smooth="yes"/>
      <point x="283" y="744" type="curve" smooth="yes"/>
      <point x="141" y="744" smooth="yes"/>
      <point x="71" y="679" smooth="yes"/>
      <point x="71" y="547" type="curve" smooth="yes"/>
      <point x="71" y="472"/>
      <point x="118" y="405"/>
      <point x="191" y="375" type="curve"/>
      <point x="101" y="347" smooth="yes"/>
      <point x="51" y="281" smooth="yes"/>
      <point x="51" y="191" type="curve" smooth="yes" name="hr01"/>
      <point x="51" y="54" smooth="yes"/>
      <point x="131" y="-15" smooth="yes"/>
      <point x="290" y="-15" type="curve" smooth="yes"/>
      <point x="464" y="-15" smooth="yes"/>
      <point x="520" y="46" smooth="yes"/>
      <point x="520" y="237" type="curve" smooth="yes"/>
      <point x="520" y="339" type="line"/>
      <point x="636" y="339" type="line"/>
      <point x="636" y="401" type="line"/>
      <point x="386" y="401" type="line"/>
      <point x="386" y="339" type="line"/>
      <point x="444" y="339" type="line"/>
      <point x="444" y="191" type="line" smooth="yes"/>
      <point x="444" y="99" smooth="yes"/>
      <point x="396" y="57" smooth="yes"/>
      <point x="292" y="57" type="curve" smooth="yes"/>
      <point x="185" y="57" smooth="yes"/>
      <point x="137" y="98" smooth="yes"/>
      <point x="137" y="190" type="curve" smooth="yes"/>
      <point x="137" y="294"/>
      <point x="184" y="339"/>
      <point x="295" y="339" type="curve"/>
      <point x="295" y="401" type="line"/>
      <point x="280" y="401" type="line" smooth="yes"/>
      <point x="208" y="401" smooth="yes"/>
      <point x="157" y="458" smooth="yes"/>
      <point x="157" y="540" type="curve" smooth="yes" name="hr02"/>
      <point x="157" y="632" smooth="yes"/>
      <point x="197" y="673" smooth="yes"/>
      <point x="286" y="673" type="curve" smooth="yes"/>
      <point x="356" y="673"/>
      <point x="396" y="642"/>
      <point x="406" y="580" type="curve"/>
    </contour>
  </outline>
</glyph>
<glyph name="hyphen" format="1">
  <advance width="488"/>
  <unicode hex="002D"/>
  <outline>
    <contour>
      <point x="68" y="284" type="line" name="hr00"/>
      <point x="420" y="284" type="line"/>
      <point x="420" y="352" type="line"/>
      <point x="68" y="352" type="line"/>
    </contour>
  </outline>
</glyph>
<glyph name="four" format="1">
  <advance width="634"/>
  <unicode hex="0034"/>
  <outline>
    <contour>
      <point x="480" y="0" type="line" name="hr00"/>
      <point x="480" y="163" type="line"/>
      <point x="569" y="163" type="line"/>
      <point x="569" y="234" type="line"/>
      <point x="480" y="234" type="line"/>
      <point x="480" y="730" type="line"/>
      <point x="354" y="730" type="line"/>
      <point x="32" y="233" type="line"/>
      <point x="32" y="163" type="line"/>
      <point x="394" y="163" type="line"/>
      <point x="394" y="0" type="line"/>
    </contour>
    <contour>
      <point x="129" y="234" type="line"/>
      <point x="394" y="648" type="line"/>
      <point x="394" y="234" type="line"/>
    </contour>
  </outline>
</glyph>
<glyph name="nine" format="1">
  <advance width="634"/>
  <unicode hex="0039"/>
  <outline>
    <contour>
      <point x="67" y="183" type="line" name="hr00"/>
      <point x="75" y="54" smooth="yes"/>
      <point x="155" y="-14" smooth="yes"/>
      <point x="298" y="-14" type="curve" smooth="yes"/>
      <point x="474" y="-14" smooth="yes"/>
      <point x="553" y="106" smooth="yes"/>
      <point x="553" y="373" type="curve" smooth="yes"/>
      <point x="553" y="630" smooth="yes"/>
      <point x="479" y="744" smooth="yes"/>
      <point x="312" y="744" type="curve" smooth="yes"/>
      <point x="158" y="744" smooth="yes"/>
      <point x="58" y="652" smooth="yes"/>
      <point x="58" y="511" type="curve" smooth="yes"/>
      <point x="58" y="377" smooth="yes"/>
      <point x="146" y="301" smooth="yes"/>
      <point x="301" y="301" type="curve" smooth="yes"/>
      <point x="357" y="301"/>
      <point x="411" y="309"/>
      <point x="467" y="325" type="curve"/>
      <point x="460" y="133" smooth="yes"/>
      <point x="411" y="56" smooth="yes"/>
      <point x="297" y="56" type="curve" smooth="yes"/>
      <point x="201" y="56"/>
      <point x="146" y="104"/>
      <point x="142" y="192" type="curve"/>
    </contour>
    <contour>
      <point x="309" y="370" type="curve" smooth="yes"/>
      <point x="208" y="370" smooth="yes"/>
      <point x="144" y="426" smooth="yes"/>
      <point x="144" y="514" type="curve" smooth="yes"/>
      <point x="144" y="612" smooth="yes"/>
      <point x="208" y="673" smooth="yes"/>
      <point x="311" y="673" type="curve" smooth="yes"/>
      <point x="422" y="673"/>
      <point x="466" y="594"/>
      <point x="468" y="390" type="curve"/>
      <point x="409" y="375" smooth="yes"/>
      <point x="369" y="370" smooth="yes"/>
    </contour>
  </outline>
</glyph>
<glyph name="equal" format="1">
  <advance width="580"/>
  <unicode hex="003D"/>
  <outline>
    <contour>
      <point x="92" y="386" type="line" name="hr00"/>
      <point x="488" y="386" type="line"/>
      <point x="488" y="454" type="line"/>
      <point x="92" y="454" type="line"/>
    </contour>
    <contour>
      <point x="92" y="182" type="line"/>
      <point x="488" y="182" type="line"/>
      <point x="488" y="250" type="line"/>
      <point x="92" y="250" type="line"/>
    </contour>
  </outline>
</glyph>
<glyph name="question" format="1">
  <advance width="480"/>
  <unicode hex="003F"/>
  <outline>
    <contour>
      <point x="219" y="-8" type="curve" smooth="yes" name="hr00"/>
      <point x="258" y="-8" smooth="yes"/>
      <point x="274" y="10" smooth="yes"/>
      <point x="274" y="53" type="curve" smooth="yes"/>
      <point x="274" y="96" smooth="yes"/>
      <point x="257" y="115" smooth="yes"/>
      <point x="219" y="115" type="curve" smooth="yes"/>
      <point x="182" y="115" smooth="yes"/>
      <point x="166" y="97" smooth="yes"/>
      <point x="166" y="53" type="curve" smooth="yes"/>
      <point x="166" y="10" smooth="yes"/>
      <point x="181" y="-8" smooth="yes"/>
    </contour>
    <contour>
      <point x="110" y="581" type="line"/>
      <point x="122" y="644" smooth="yes"/>
      <point x="165" y="677" smooth="yes"/>
      <point x="236" y="677" type="curve" smooth="yes"/>
      <point x="315" y="677" smooth="yes"/>
      <point x="370" y="618" smooth="yes"/>
      <point x="370" y="533" type="curve" smooth="yes"/>
      <point x="370" y="444"/>
      <point x="313" y="386"/>
      <point x="184" y="343" type="curve"/>
      <point x="192" y="191" type="line"/>
      <point x="247" y="191" type="line"/>
      <point x="258" y="313" type="line"/>
      <point x="387" y="357" smooth="yes"/>
      <point x="454" y="433" smooth="yes"/>
      <point x="454" y="535" type="curve" smooth="yes"/>
      <point x="454" y="659" smooth="yes"/>
      <point x="366" y="744" smooth="yes"/>
      <point x="237" y="744" type="curve" smooth="yes"/>
      <point x="124" y="744"/>
      <point x="51" y="688"/>
      <point x="36" y="591" type="curve"/>
    </contour>
  </outline>
</glyph>
<glyph name="D" format="1">
  <advance width="698"/>
  <unicode hex="0044"/>
  <outline>
    <contour>
      <point x="106" y="730" type="line" name="hr00"/>
      <point x="106" y="0" type="line"/>
      <point x="328" y="0" type="line" smooth="yes"/>
      <point x="527" y="0" smooth="yes"/>
      <point x="614" y="111" smooth="yes"/>
      <point x="614" y="365" type="curve" smooth="yes"/>
      <point x="614" y="618" smooth="yes"/>
      <point x="527" y="730" smooth="yes"/>
      <point x="328" y="730" type="curve" smooth="yes"/>
    </contour>
    <contour>
      <point x="324" y="660" type="line" smooth="yes"/>
      <point x="465" y="660" smooth="yes"/>
      <point x="526" y="572" smooth="yes"/>
      <point x="526" y="365" type="curve" smooth="yes"/>
      <point x="526" y="158" smooth="yes"/>
      <point x="465" y="70" smooth="yes"/>
      <point x="324" y="70" type="curve" smooth="yes"/>
      <point x="194" y="70" type="line"/>
      <point x="194" y="660" type="line"/>
    </contour>
  </outline>
</glyph>
<glyph name="E" format="1">
  <advance width="560"/>
  <unicode hex="0045"/>
  <outline>
    <contour>
      <point x="106" y="730" type="line" name="hr00"/>
      <point x="106" y="0" type="line"/>
      <point x="514" y="0" type="line"/>
      <point x="514" y="70" type="line"/>
      <point x="194" y="70" type="line"/>
      <point x="194" y="336" type="line"/>
      <point x="473" y="336" type="line"/>
      <point x="473" y="406" type="line"/>
      <point x="194" y="406" type="line"/>
      <point x="194" y="660" type="line"/>
      <point x="494" y="660" type="line"/>
      <point x="494" y="730" type="line"/>
    </contour>
  </outline>
</glyph>
<glyph name="G" format="1">
  <advance width="693"/>
  <unicode hex="0047"/>
  <outline>
    <contour>
      <point x="406" y="308" type="line"/>
      <point x="519" y="308" type="line"/>
      <point x="519" y="208" type="line"/>
      <point x="510" y="112" smooth="yes"/>
      <point x="448" y="58" smooth="yes"/>
      <point x="347" y="58" type="curve" smooth="yes"/>
      <point x="209" y="58" smooth="yes"/>
      <point x="162" y="135" smooth="yes"/>
      <point x="162" y="365" type="curve" smooth="yes"/>
      <point x="162" y="593" smooth="yes"/>
      <point x="212" y="672" smooth="yes"/>
      <point x="355" y="672" type="curve" smooth="yes"/>
      <point x="444" y="672"/>
      <point x="497" y="627"/>
      <point x="511" y="540" type="curve"/>
      <point x="582" y="553" type="line"/>
      <point x="565" y="683" smooth="yes"/>
      <point x="492" y="744" smooth="yes"/>
      <point x="355" y="744" type="curve" smooth="yes"/>
      <point x="153" y="744" smooth="yes"/>
      <point x="74" y="637" smooth="yes"/>
      <point x="74" y="366" type="curve" smooth="yes"/>
      <point x="74" y="90" smooth="yes"/>
      <point x="148" y="-14" smooth="yes"/>
      <point x="345" y="-14" type="curve" smooth="yes"/>
      <point x="429" y="-14"/>
      <point x="493" y="20"/>
      <point x="534" y="87" type="curve"/>
      <point x="549" y="0" type="line" name="hr01"/>
      <point x="597" y="0" type="line"/>
      <point x="597" y="367" type="line"/>
      <point x="406" y="367" type="line"/>
    </contour>
  </outline>
</glyph>
<glyph name="I" format="1">
  <advance width="300"/>
  <unicode hex="0049"/>
  <outline>
    <contour>
      <point x="106" y="730" type="line" name="hr00"/>
      <point x="106" y="0" type="line"/>
      <point x="194" y="0" type="line"/>
      <point x="194" y="730" type="line"/>
    </contour>
  </outline>
</glyph>
<glyph name="Q" format="1">
  <advance width="711"/>
  <unicode hex="0051"/>
  <outline>
    <contour>
      <point x="582" y="-139" type="line" name="hr00"/>
      <point x="618" y="-72" type="line"/>
      <point x="459" y="-1" type="line"/>
      <point x="585" y="34" smooth="yes"/>
      <point x="637" y="142" smooth="yes"/>
      <point x="637" y="365" type="curve" smooth="yes"/>
      <point x="637" y="636" smooth="yes"/>
      <point x="556" y="744" smooth="yes"/>
      <point x="355" y="744" type="curve" smooth="yes"/>
      <point x="154" y="744" smooth="yes"/>
      <point x="74" y="636" smooth="yes"/>
      <point x="74" y="365" type="curve" smooth="yes"/>
      <point x="74" y="104"/>
      <point x="146" y="-4"/>
      <point x="327" y="-13" type="curve"/>
    </contour>
    <contour>
      <point x="355" y="58" type="curve" smooth="yes"/>
      <point x="217" y="58" smooth="yes"/>
      <point x="162" y="145" smooth="yes"/>
      <point x="162" y="365" type="curve" smooth="yes"/>
      <point x="162" y="585" smooth="yes"/>
      <point x="217" y="672" smooth="yes"/>
      <point x="355" y="672" type="curve" smooth="yes"/>
      <point x="493" y="672" smooth="yes"/>
      <point x="549" y="583" smooth="yes"/>
      <point x="549" y="365" type="curve" smooth="yes"/>
      <point x="549" y="147" smooth="yes"/>
      <point x="493" y="58" smooth="yes"/>
    </contour>
  </outline>
</glyph>
<glyph name="R" format="1">
  <advance width="640"/>
  <unicode hex="0052"/>
  <outline>
    <contour>
      <point x="106" y="730" type="line" name="hr00"/>
      <point x="106" y="0" type="line"/>
      <point x="194" y="0" type="line"/>
      <point x="194" y="301" type="line"/>
      <point x="279" y="301" type="line" smooth="yes"/>
      <point x="339" y="301" smooth="yes"/>
      <point x="366" y="283" smooth="yes"/>
      <point x="386" y="237" type="curve" smooth="yes"/>
      <point x="487" y="0" type="line"/>
      <point x="581" y="0" type="line"/>
      <point x="473" y="249" type="line" smooth="yes"/>
      <point x="459" y="280"/>
      <point x="444" y="301"/>
      <point x="425" y="315" type="curve"/>
      <point x="506" y="342" smooth="yes"/>
      <point x="551" y="413" smooth="yes"/>
      <point x="551" y="515" type="curve" smooth="yes"/>
      <point x="551" y="653" smooth="yes"/>
      <point x="471" y="730" smooth="yes"/>
      <point x="327" y="730" type="curve" smooth="yes"/>
    </contour>
    <contour>
      <point x="194" y="371" type="line"/>
      <point x="194" y="660" type="line"/>
      <point x="323" y="660" type="line" smooth="yes"/>
      <point x="411" y="660" smooth="yes"/>
      <point x="463" y="606" smooth="yes"/>
      <point x="463" y="515" type="curve" smooth="yes"/>
      <point x="463" y="424" smooth="yes"/>
      <point x="411" y="371" smooth="yes"/>
      <point x="323" y="371" type="curve" smooth="yes"/>
    </contour>
  </outline>
</glyph>
<glyph name="W" format="1">
  <advance width="871"/>
  <unicode hex="0057"/>
  <outline>
    <contour>
      <point x="315" y="0" type="line" name="hr00"/>
      <point x="435" y="556" type="line"/>
      <point x="556" y="0" type="line"/>
      <point x="684" y="0" type="line"/>
      <point x="843" y="730" type="line"/>
      <point x="753" y="730" type="line"/>
      <point x="617" y="82" type="line"/>
      <point x="479" y="730" type="line"/>
      <point x="392" y="730" type="line"/>
      <point x="253" y="82" type="line"/>
      <point x="118" y="730" type="line"/>
      <point x="28" y="730" type="line"/>
      <point x="187" y="0" type="line"/>
    </contour>
  </outline>
</glyph>
<glyph name="X" format="1">
  <advance width="629"/>
  <unicode hex="0058"/>
  <outline>
    <contour>
      <point x="40" y="730" type="line" name="hr00"/>
      <point x="263" y="382" type="line"/>
      <point x="27" y="0" type="line"/>
      <point x="124" y="0" type="line"/>
      <point x="310" y="308" type="line"/>
      <point x="508" y="0" type="line"/>
      <point x="608" y="0" type="line"/>
      <point x="368" y="374" type="line"/>
      <point x="589" y="730" type="line"/>
      <point x="493" y="730" type="line"/>
      <point x="321" y="447" type="line"/>
      <point x="140" y="730" type="line"/>
    </contour>
  </outline>
</glyph>
<glyph name="Y" format="1">
  <advance width="550"/>
  <unicode hex="0059"/>
  <outline>
    <contour>
      <point x="319" y="254" type="line" name="hr00"/>
      <point x="544" y="730" type="line"/>
      <point x="454" y="730" type="line"/>
      <point x="275" y="340" type="line"/>
      <point x="96" y="730" type="line"/>
      <point x="6" y="730" type="line"/>
      <point x="231" y="254" type="line"/>
      <point x="231" y="0" type="line"/>
      <point x="319" y="0" type="line"/>
    </contour>
  </outline>
</glyph>
<glyph name="Z" format="1">
  <advance width="549"/>
  <unicode hex="005A"/>
  <outline>
    <contour>
      <point x="47" y="660" type="line" name="hr00"/>
      <point x="404" y="660" type="line"/>
      <point x="28" y="56" type="line"/>
      <point x="28" y="0" type="line"/>
      <point x="521" y="0" type="line"/>
      <point x="521" y="70" type="line"/>
      <point x="135" y="70" type="line"/>
      <point x="511" y="674" type="line"/>
      <point x="511" y="730" type="line"/>
      <point x="48" y="730" type="line"/>
    </contour>
  </outline>
</glyph>
<glyph name="bracketleft" format="1">
  <advance width="295"/>
  <unicode hex="005B"/>
  <outline>
    <contour>
      <point x="78" y="-66" type="line" name="hr00"/>
      <point x="289" y="-66" type="line"/>
      <point x="289" y="-3" type="line"/>
      <point x="167" y="-3" type="line"/>
      <point x="167" y="672" type="line"/>
      <point x="289" y="672" type="line"/>
      <point x="289" y="735" type="line"/>
      <point x="78" y="735" type="line"/>
    </contour>
  </outline>
</glyph>
<glyph name="backslash" format="1">
  <advance width="320"/>
  <unicode hex="005C"/>
  <outline>
    <contour>
      <point x="85" y="775" type="line" name="hr00"/>
      <point x="-2" y="775" type="line"/>
      <point x="235" y="-106" type="line"/>
      <point x="322" y="-106" type="line"/>
    </contour>
  </outline>
</glyph>
<glyph name="bracketright" format="1">
  <advance width="295"/>
  <unicode hex="005D"/>
  <outline>
    <contour>
      <point x="217" y="735" type="line" name="hr00"/>
      <point x="6" y="735" type="line"/>
      <point x="6" y="672" type="line"/>
      <point x="128" y="672" type="line"/>
      <point x="128" y="-3" type="line"/>
      <point x="6" y="-3" type="line"/>
      <point x="6" y="-66" type="line"/>
      <point x="217" y="-66" type="line"/>
    </contour>
  </outline>
</glyph>
<glyph name="asciicircum" format="1">
  <advance width="580"/>
  <unicode hex="005E"/>
  <outline>
    <contour>
      <point x="247" y="618" type="line" name="hr00"/>
      <point x="98" y="316" type="line"/>
      <point x="173" y="316" type="line"/>
      <point x="290" y="561" type="line"/>
      <point x="407" y="316" type="line"/>
      <point x="482" y="316" type="line"/>
      <point x="333" y="618" type="line"/>
    </contour>
  </outline>
</glyph>
<glyph name="underscore" format="1">
  <advance width="576"/>
  <unicode hex="005F"/>
  <outline>
    <contour>
      <point x="68" y="-68" type="line" name="hr00"/>
      <point x="508" y="-68" type="line"/>
      <point x="508" y="0" type="line"/>
      <point x="68" y="0" type="line"/>
    </contour>
  </outline>
</glyph>
<glyph name="grave" format="1">
  <advance width="310"/>
  <unicode hex="0060"/>
  <outline>
    <contour>
      <point x="264" y="671" type="line" name="hr00"/>
      <point x="96" y="827" type="line"/>
      <point x="42" y="763" type="line"/>
      <point x="225" y="625" type="line"/>
    </contour>
  </outline>
</glyph>
<glyph name="c" format="1">
  <advance width="550"/>
  <unicode hex="0063"/>
  <outline>
    <contour>
      <point x="140" y="286" type="curve" smooth="yes" name="hr00"/>
      <point x="140" y="442" smooth="yes"/>
      <point x="189" y="516" smooth="yes"/>
      <point x="293" y="516" type="curve" smooth="yes"/>
      <point x="388" y="516"/>
      <point x="431" y="481"/>
      <point x="436" y="399" type="curve"/>
      <point x="505" y="409" type="line"/>
      <point x="495" y="531" smooth="yes"/>
      <point x="428" y="586" smooth="yes"/>
      <point x="290" y="586" type="curve" smooth="yes"/>
      <point x="132" y="586" smooth="yes"/>
      <point x="54" y="487" smooth="yes"/>
      <point x="54" y="286" type="curve" smooth="yes"/>
      <point x="54" y="86" smooth="yes"/>
      <point x="133" y="-14" smooth="yes"/>
      <point x="290" y="-14" type="curve" smooth="yes"/>
      <point x="428" y="-14"/>
      <point x="495" y="43"/>
      <point x="506" y="170" type="curve"/>
      <point x="436" y="173" type="line"/>
      <point x="431" y="91" smooth="yes"/>
      <point x="388" y="56" smooth="yes"/>
      <point x="293" y="56" type="curve" smooth="yes"/>
      <point x="189" y="56" smooth="yes"/>
      <point x="140" y="130" smooth="yes"/>
    </contour>
  </outline>
</glyph>
<glyph name="e" format="1">
  <advance width="578"/>
  <unicode hex="0065"/>
  <outline>
    <contour>
      <point x="297" y="-14" type="curve" smooth="yes" name="hr00"/>
      <point x="432" y="-14"/>
      <point x="507" y="47"/>
      <point x="520" y="167" type="curve"/>
      <point x="449" y="171" type="line"/>
      <point x="442" y="93" smooth="yes"/>
      <point x="392" y="56" smooth="yes"/>
      <point x="297" y="56" type="curve" smooth="yes"/>
      <point x="183" y="56"/>
      <point x="140" y="116"/>
      <point x="139" y="277" type="curve"/>
      <point x="529" y="277" type="line"/>
      <point x="529" y="298" type="line" smooth="yes"/>
      <point x="529" y="490" smooth="yes"/>
      <point x="450" y="586" smooth="yes"/>
      <point x="293" y="586" type="curve" smooth="yes"/>
      <point x="135" y="586" smooth="yes"/>
      <point x="54" y="485" smooth="yes"/>
      <point x="54" y="286" type="curve" smooth="yes"/>
      <point x="54" y="77" smooth="yes"/>
      <point x="128" y="-14" smooth="yes"/>
    </contour>
    <contour>
      <point x="292" y="516" type="curve" smooth="yes"/>
      <point x="389" y="516"/>
      <point x="435" y="463"/>
      <point x="443" y="341" type="curve"/>
      <point x="141" y="341" type="line"/>
      <point x="150" y="460" smooth="yes"/>
      <point x="199" y="516" smooth="yes"/>
    </contour>
  </outline>
</glyph>
<glyph name="f" format="1">
  <advance width="338"/>
  <unicode hex="0066"/>
  <outline>
    <contour>
      <point x="386" y="758" type="line" name="hr00"/>
      <point x="353" y="770" smooth="yes"/>
      <point x="321" y="775" smooth="yes"/>
      <point x="280" y="775" type="curve" smooth="yes"/>
      <point x="176" y="775" smooth="yes"/>
      <point x="122" y="720" smooth="yes"/>
      <point x="122" y="616" type="curve" smooth="yes"/>
      <point x="122" y="572" type="line"/>
      <point x="56" y="572" type="line"/>
      <point x="56" y="513" type="line"/>
      <point x="122" y="513" type="line"/>
      <point x="122" y="0" type="line"/>
      <point x="208" y="0" type="line"/>
      <point x="208" y="513" type="line"/>
      <point x="340" y="513" type="line"/>
      <point x="340" y="572" type="line"/>
      <point x="208" y="572" type="line"/>
      <point x="208" y="616" type="line" smooth="yes"/>
      <point x="208" y="678" smooth="yes"/>
      <point x="232" y="707" smooth="yes"/>
      <point x="286" y="707" type="curve" smooth="yes"/>
      <point x="317" y="707"/>
      <point x="339" y="703"/>
      <point x="364" y="693" type="curve"/>
    </contour>
  </outline>
</glyph>
<glyph name="i" format="1">
  <advance width="298"/>
  <unicode hex="0069"/>
  <outline>
    <contour>
      <point x="106" y="572" type="line" name="hr00"/>
      <point x="106" y="0" type="line"/>
      <point x="192" y="0" type="line"/>
      <point x="192" y="572" type="line"/>
    </contour>
    <contour>
      <point x="149" y="668" type="curve" smooth="yes"/>
      <point x="185" y="668" smooth="yes"/>
      <point x="202" y="686" smooth="yes"/>
      <point x="202" y="723" type="curve" smooth="yes"/>
      <point x="202" y="761" smooth="yes"/>
      <point x="185" y="779" smooth="yes"/>
      <point x="149" y="779" type="curve" smooth="yes"/>
      <point x="115" y="779" smooth="yes"/>
      <point x="98" y="761" smooth="yes"/>
      <point x="98" y="723" type="curve" smooth="yes"/>
      <point x="98" y="686" smooth="yes"/>
      <point x="115" y="668" smooth="yes"/>
    </contour>
  </outline>
</glyph>
<glyph name="l" format="1">
  <advance width="298"/>
  <unicode hex="006C"/>
  <outline>
    <contour>
      <point x="106" y="758" type="line" name="hr00"/>
      <point x="106" y="0" type="line"/>
      <point x="192" y="0" type="line"/>
      <point x="192" y="770" type="line"/>
    </contour>
  </outline>
</glyph>
<glyph name="m" format="1">
  <advance width="986"/>
  <unicode hex="006D"/>
  <outline>
    <contour>
      <point x="159" y="572" type="line"/>
      <point x="106" y="572" type="line"/>
      <point x="106" y="0" type="line"/>
      <point x="192" y="0" type="line"/>
      <point x="192" y="453" type="line"/>
      <point x="242" y="496" smooth="yes"/>
      <point x="293" y="516" smooth="yes"/>
      <point x="352" y="516" type="curve" smooth="yes" name="hr01"/>
      <point x="423" y="516" smooth="yes"/>
      <point x="455" y="480" smooth="yes"/>
      <point x="455" y="402" type="curve" smooth="yes"/>
      <point x="455" y="0" type="line"/>
      <point x="541" y="0" type="line"/>
      <point x="541" y="407" type="line" smooth="yes"/>
      <point x="541" y="421"/>
      <point x="540" y="435"/>
      <point x="538" y="448" type="curve"/>
      <point x="589" y="494" smooth="yes"/>
      <point x="641" y="516" smooth="yes"/>
      <point x="702" y="516" type="curve" smooth="yes"/>
      <point x="772" y="516" smooth="yes"/>
      <point x="804" y="480" smooth="yes"/>
      <point x="804" y="402" type="curve" smooth="yes"/>
      <point x="804" y="0" type="line"/>
      <point x="890" y="0" type="line"/>
      <point x="890" y="407" type="line" smooth="yes"/>
      <point x="890" y="525" smooth="yes"/>
      <point x="831" y="586" smooth="yes"/>
      <point x="716" y="586" type="curve" smooth="yes"/>
      <point x="649" y="586"/>
      <point x="574" y="555"/>
      <point x="521" y="507" type="curve"/>
      <point x="494" y="560" smooth="yes"/>
      <point x="442" y="586" smooth="yes"/>
      <point x="365" y="586" type="curve" smooth="yes" name="hr02"/>
      <point x="303" y="586"/>
      <point x="233" y="559"/>
      <point x="181" y="515" type="curve"/>
    </contour>
  </outline>
</glyph>
<glyph name="o" format="1">
  <advance width="604"/>
  <unicode hex="006F"/>
  <outline>
    <contour>
      <point x="302" y="56" type="curve" smooth="yes" name="hr00"/>
      <point x="191" y="56" smooth="yes"/>
      <point x="140" y="128" smooth="yes"/>
      <point x="140" y="286" type="curve" smooth="yes"/>
      <point x="140" y="444" smooth="yes"/>
      <point x="191" y="516" smooth="yes"/>
      <point x="302" y="516" type="curve" smooth="yes"/>
      <point x="413" y="516" smooth="yes"/>
      <point x="464" y="443" smooth="yes"/>
      <point x="464" y="286" type="curve" smooth="yes"/>
      <point x="464" y="129" smooth="yes"/>
      <point x="413" y="56" smooth="yes"/>
    </contour>
    <contour>
      <point x="302" y="-14" type="curve"/>
      <point x="467" y="-14" smooth="yes"/>
      <point x="550" y="87" smooth="yes"/>
      <point x="550" y="286" type="curve" smooth="yes"/>
      <point x="550" y="485" smooth="yes"/>
      <point x="467" y="586" smooth="yes"/>
      <point x="302" y="586" type="curve" smooth="yes"/>
      <point x="137" y="586" smooth="yes"/>
      <point x="54" y="485" smooth="yes"/>
      <point x="54" y="286" type="curve" smooth="yes"/>
      <point x="54" y="87" smooth="yes"/>
      <point x="137" y="-14" smooth="yes"/>
    </contour>
  </outline>
</glyph>
<glyph name="q" format="1">
  <advance width="627"/>
  <unicode hex="0071"/>
  <outline>
    <contour>
      <point x="277" y="586" type="curve" smooth="yes"/>
      <point x="129" y="586" smooth="yes"/>
      <point x="54" y="485" smooth="yes"/>
      <point x="54" y="286" type="curve" smooth="yes"/>
      <point x="54" y="87" smooth="yes"/>
      <point x="129" y="-14" smooth="yes"/>
      <point x="277" y="-14" type="curve" smooth="yes"/>
      <point x="325" y="-14"/>
      <point x="382" y="-1"/>
      <point x="435" y="23" type="curve"/>
      <point x="435" y="-234" type="line"/>
      <point x="521" y="-222" type="line"/>
      <point x="521" y="572" type="line" name="hr01"/>
      <point x="469" y="572" type="line"/>
      <point x="452" y="530" type="line"/>
      <point x="402" y="566" smooth="yes"/>
      <point x="340" y="586" smooth="yes"/>
    </contour>
    <contour>
      <point x="294" y="56" type="curve" smooth="yes"/>
      <point x="192" y="56" smooth="yes"/>
      <point x="140" y="133" smooth="yes"/>
      <point x="140" y="286" type="curve" smooth="yes"/>
      <point x="140" y="437" smooth="yes"/>
      <point x="193" y="516" smooth="yes"/>
      <point x="294" y="516" type="curve" smooth="yes"/>
      <point x="349" y="516"/>
      <point x="394" y="502"/>
      <point x="435" y="473" type="curve"/>
      <point x="435" y="89" type="line"/>
      <point x="390" y="67" smooth="yes"/>
      <point x="343" y="56" smooth="yes"/>
    </contour>
  </outline>
</glyph>
<glyph name="t" format="1">
  <advance width="345"/>
  <unicode hex="0074"/>
  <outline>
    <contour>
      <point x="21" y="513" type="line" name="hr00"/>
      <point x="119" y="513" type="line"/>
      <point x="119" y="131" type="line" smooth="yes"/>
      <point x="119" y="28" smooth="yes"/>
      <point x="151" y="-14" smooth="yes"/>
      <point x="231" y="-14" type="curve" smooth="yes"/>
      <point x="256" y="-14"/>
      <point x="287" y="-9"/>
      <point x="323" y="2" type="curve"/>
      <point x="313" y="60" type="line"/>
      <point x="287" y="54" smooth="yes"/>
      <point x="272" y="52" smooth="yes"/>
      <point x="259" y="52" type="curve" smooth="yes"/>
      <point x="219" y="52" smooth="yes"/>
      <point x="205" y="74" smooth="yes"/>
      <point x="205" y="134" type="curve" smooth="yes"/>
      <point x="205" y="513" type="line"/>
      <point x="326" y="513" type="line"/>
      <point x="326" y="572" type="line"/>
      <point x="205" y="572" type="line"/>
      <point x="205" y="710" type="line"/>
      <point x="119" y="676" type="line"/>
      <point x="119" y="572" type="line"/>
      <point x="21" y="572" type="line"/>
    </contour>
  </outline>
</glyph>
<glyph name="v" format="1">
  <advance width="532"/>
  <unicode hex="0076"/>
  <outline>
    <contour>
      <point x="313" y="0" type="line" name="hr00"/>
      <point x="516" y="572" type="line"/>
      <point x="429" y="572" type="line"/>
      <point x="266" y="100" type="line"/>
      <point x="103" y="572" type="line"/>
      <point x="16" y="572" type="line"/>
      <point x="219" y="0" type="line"/>
    </contour>
  </outline>
</glyph>
<glyph name="x" format="1">
  <advance width="505"/>
  <unicode hex="0078"/>
  <outline>
    <contour>
      <point x="99" y="0" type="line" name="hr00"/>
      <point x="249" y="227" type="line"/>
      <point x="401" y="0" type="line"/>
      <point x="497" y="0" type="line"/>
      <point x="302" y="291" type="line"/>
      <point x="487" y="572" type="line"/>
      <point x="396" y="572" type="line"/>
      <point x="256" y="359" type="line"/>
      <point x="114" y="572" type="line"/>
      <point x="18" y="572" type="line"/>
      <point x="204" y="294" type="line"/>
      <point x="8" y="0" type="line"/>
    </contour>
  </outline>
</glyph>
<glyph name="braceleft" format="1">
  <advance width="303"/>
  <unicode hex="007B"/>
  <outline>
    <contour>
      <point x="133" y="339" type="line" name="hr00"/>
      <point x="161" y="339" smooth="yes"/>
      <point x="182" y="367" smooth="yes"/>
      <point x="182" y="404" type="curve" smooth="yes"/>
      <point x="182" y="445" smooth="yes"/>
      <point x="174" y="474" smooth="yes"/>
      <point x="174" y="522" type="curve" smooth="yes"/>
      <point x="174" y="620"/>
      <point x="213" y="666"/>
      <point x="297" y="666" type="curve"/>
      <point x="297" y="736" type="line"/>
      <point x="157" y="736" smooth="yes"/>
      <point x="84" y="667" smooth="yes"/>
      <point x="84" y="533" type="curve" smooth="yes"/>
      <point x="84" y="488" smooth="yes"/>
      <point x="92" y="451" smooth="yes"/>
      <point x="92" y="412" type="curve" smooth="yes"/>
      <point x="92" y="384"/>
      <point x="62" y="364"/>
      <point x="19" y="364" type="curve"/>
      <point x="19" y="306" type="line"/>
      <point x="62" y="306" smooth="yes"/>
      <point x="92" y="286" smooth="yes"/>
      <point x="92" y="258" type="curve" smooth="yes"/>
      <point x="92" y="219" smooth="yes"/>
      <point x="84" y="182" smooth="yes"/>
      <point x="84" y="137" type="curve" smooth="yes"/>
      <point x="84" y="3"/>
      <point x="157" y="-66"/>
      <point x="297" y="-66" type="curve"/>
      <point x="297" y="4" type="line"/>
      <point x="213" y="4" smooth="yes"/>
      <point x="174" y="50" smooth="yes"/>
      <point x="174" y="149" type="curve" smooth="yes"/>
      <point x="174" y="198" smooth="yes"/>
      <point x="182" y="228" smooth="yes"/>
      <point x="182" y="269" type="curve" smooth="yes"/>
      <point x="182" y="306"/>
      <point x="161" y="333"/>
      <point x="133" y="333" type="curve"/>
    </contour>
  </outline>
</glyph>
<glyph name="braceright" format="1">
  <advance width="303"/>
  <unicode hex="007D"/>
  <outline>
    <contour>
      <point x="170" y="335" type="line" name="hr00"/>
      <point x="142" y="335" smooth="yes"/>
      <point x="121" y="307" smooth="yes"/>
      <point x="121" y="270" type="curve" smooth="yes"/>
      <point x="121" y="229" smooth="yes"/>
      <point x="129" y="199" smooth="yes"/>
      <point x="129" y="150" type="curve" smooth="yes"/>
      <point x="129" y="51"/>
      <point x="90" y="4"/>
      <point x="6" y="4" type="curve"/>
      <point x="6" y="-66" type="line"/>
      <point x="146" y="-66" smooth="yes"/>
      <point x="219" y="4" smooth="yes"/>
      <point x="219" y="137" type="curve" smooth="yes"/>
      <point x="219" y="182" smooth="yes"/>
      <point x="211" y="219" smooth="yes"/>
      <point x="211" y="258" type="curve" smooth="yes"/>
      <point x="211" y="286"/>
      <point x="241" y="306"/>
      <point x="284" y="306" type="curve"/>
      <point x="284" y="364" type="line"/>
      <point x="241" y="364" smooth="yes"/>
      <point x="211" y="384" smooth="yes"/>
      <point x="211" y="412" type="curve" smooth="yes"/>
      <point x="211" y="451" smooth="yes"/>
      <point x="219" y="488" smooth="yes"/>
      <point x="219" y="533" type="curve" smooth="yes"/>
      <point x="219" y="666"/>
      <point x="146" y="736"/>
      <point x="6" y="736" type="curve"/>
      <point x="6" y="666" type="line"/>
      <point x="90" y="666" smooth="yes"/>
      <point x="129" y="621" smooth="yes"/>
      <point x="129" y="526" type="curve" smooth="yes"/>
      <point x="129" y="477" smooth="yes"/>
      <point x="121" y="447" smooth="yes"/>
      <point x="121" y="406" type="curve" smooth="yes"/>
      <point x="121" y="368"/>
      <point x="142" y="341"/>
      <point x="170" y="341" type="curve"/>
    </contour>
  </outline>
</glyph>
<glyph name="exclamdown" format="1">
  <advance width="312"/>
  <unicode hex="00A1"/>
  <outline>
    <contour>
      <point x="157" y="586" type="curve" name="hr00"/>
      <point x="118" y="586" smooth="yes"/>
      <point x="102" y="568" smooth="yes"/>
      <point x="102" y="525" type="curve" smooth="yes"/>
      <point x="102" y="481" smooth="yes"/>
      <point x="118" y="463" smooth="yes"/>
      <point x="157" y="463" type="curve" smooth="yes"/>
      <point x="194" y="463" smooth="yes"/>
      <point x="210" y="482" smooth="yes"/>
      <point x="210" y="525" type="curve" smooth="yes"/>
      <point x="210" y="568" smooth="yes"/>
      <point x="194" y="586" smooth="yes"/>
    </contour>
    <contour>
      <point x="205" y="-152" type="line"/>
      <point x="205" y="12" type="line"/>
      <point x="183" y="387" type="line"/>
      <point x="130" y="387" type="line"/>
      <point x="108" y="12" type="line"/>
      <point x="108" y="-152" type="line"/>
    </contour>
  </outline>
</glyph>
<glyph name="cent" format="1">
  <advance width="631"/>
  <unicode hex="00A2"/>
  <outline>
    <contour>
      <point x="573" y="232" type="curve" name="hr00"/>
      <point x="504" y="236" type="line"/>
      <point x="500" y="147" smooth="yes"/>
      <point x="452" y="109" smooth="yes"/>
      <point x="340" y="109" type="curve" smooth="yes"/>
      <point x="221" y="109" smooth="yes"/>
      <point x="173" y="183" smooth="yes"/>
      <point x="173" y="365" type="curve" smooth="yes"/>
      <point x="173" y="552" smooth="yes"/>
      <point x="222" y="621" smooth="yes"/>
      <point x="355" y="621" type="curve" smooth="yes"/>
      <point x="444" y="621"/>
      <point x="491" y="574"/>
      <point x="496" y="479" type="curve"/>
      <point x="565" y="483" type="line"/>
      <point x="555" y="617"/>
      <point x="492" y="685"/>
      <point x="373" y="691" type="curve"/>
      <point x="373" y="810" type="line"/>
      <point x="313" y="810" type="line"/>
      <point x="313" y="690" type="line"/>
      <point x="155" y="675" smooth="yes"/>
      <point x="87" y="578" smooth="yes"/>
      <point x="87" y="365" type="curve" smooth="yes"/>
      <point x="87" y="148"/>
      <point x="156" y="48"/>
      <point x="313" y="39" type="curve"/>
      <point x="313" y="-81" type="line"/>
      <point x="373" y="-81" type="line"/>
      <point x="373" y="39" type="line"/>
      <point x="501" y="47"/>
      <point x="562" y="106"/>
    </contour>
  </outline>
</glyph>
<glyph name="sterling" format="1">
  <advance width="630"/>
  <unicode hex="00A3"/>
  <outline>
    <contour>
      <point x="68" y="314" type="line" name="hr00"/>
      <point x="139" y="314" type="line"/>
      <point x="139" y="182" type="line" smooth="yes"/>
      <point x="139" y="133"/>
      <point x="122" y="96"/>
      <point x="85" y="65" type="curve"/>
      <point x="85" y="0" type="line"/>
      <point x="580" y="0" type="line"/>
      <point x="580" y="71" type="line"/>
      <point x="178" y="71" type="line"/>
      <point x="215" y="100" smooth="yes"/>
      <point x="227" y="129" smooth="yes"/>
      <point x="227" y="194" type="curve" smooth="yes"/>
      <point x="227" y="314" type="line"/>
      <point x="479" y="314" type="line"/>
      <point x="479" y="375" type="line"/>
      <point x="227" y="375" type="line"/>
      <point x="227" y="530" type="line" smooth="yes"/>
      <point x="227" y="633" smooth="yes"/>
      <point x="262" y="673" smooth="yes"/>
      <point x="353" y="673" type="curve" smooth="yes"/>
      <point x="446" y="673"/>
      <point x="487" y="628"/>
      <point x="487" y="525" type="curve"/>
      <point x="563" y="530" type="line"/>
      <point x="563" y="680" smooth="yes"/>
      <point x="498" y="744" smooth="yes"/>
      <point x="348" y="744" type="curve" smooth="yes"/>
      <point x="204" y="744" smooth="yes"/>
      <point x="139" y="677" smooth="yes"/>
      <point x="139" y="530" type="curve" smooth="yes"/>
      <point x="139" y="375" type="line"/>
      <point x="68" y="375" type="line"/>
    </contour>
  </outline>
</glyph>
<glyph name="brokenbar" format="1">
  <advance width="325"/>
  <unicode hex="00A6"/>
  <outline>
    <contour>
      <point x="114" y="439" type="line" name="hr00"/>
      <point x="211" y="439" type="line"/>
      <point x="211" y="775" type="line"/>
      <point x="114" y="775" type="line"/>
    </contour>
    <contour>
      <point x="114" y="-106" type="line"/>
      <point x="211" y="-106" type="line"/>
      <point x="211" y="230" type="line"/>
      <point x="114" y="230" type="line"/>
    </contour>
  </outline>
</glyph>
<glyph name="section" format="1">
  <advance width="491"/>
  <unicode hex="00A7"/>
  <outline>
    <contour>
      <point x="247" y="525" type="line" smooth="yes"/>
      <point x="207" y="572" smooth="yes"/>
      <point x="195" y="598" smooth="yes"/>
      <point x="195" y="638" type="curve" smooth="yes"/>
      <point x="195" y="687"/>
      <point x="243" y="731"/>
      <point x="319" y="751" type="curve"/>
      <point x="301" y="818" type="line"/>
      <point x="181" y="786" smooth="yes"/>
      <point x="108" y="714" smooth="yes"/>
      <point x="108" y="626" type="curve" smooth="yes"/>
      <point x="108" y="582"/>
      <point x="127" y="535"/>
      <point x="166" y="485" type="curve"/>
      <point x="78" y="450" smooth="yes"/>
      <point x="36" y="395" smooth="yes"/>
      <point x="36" y="312" type="curve" smooth="yes" name="hr01"/>
      <point x="36" y="263" smooth="yes"/>
      <point x="60" y="211" smooth="yes"/>
      <point x="109" y="153" type="curve" smooth="yes"/>
      <point x="242" y="-6" type="line" smooth="yes"/>
      <point x="283" y="-55" smooth="yes"/>
      <point x="296" y="-82" smooth="yes"/>
      <point x="296" y="-122" type="curve" smooth="yes"/>
      <point x="296" y="-172"/>
      <point x="247" y="-216"/>
      <point x="172" y="-235" type="curve"/>
      <point x="190" y="-301" type="line"/>
      <point x="309" y="-271" smooth="yes"/>
      <point x="383" y="-198" smooth="yes"/>
      <point x="383" y="-110" type="curve" smooth="yes"/>
      <point x="383" y="-65"/>
      <point x="364" y="-17"/>
      <point x="325" y="32" type="curve"/>
      <point x="412" y="64" smooth="yes"/>
      <point x="455" y="121" smooth="yes"/>
      <point x="455" y="204" type="curve" smooth="yes" name="hr02"/>
      <point x="455" y="255" smooth="yes"/>
      <point x="430" y="307" smooth="yes"/>
      <point x="382" y="364" type="curve" smooth="yes"/>
    </contour>
    <contour>
      <point x="175" y="211" type="line" smooth="yes"/>
      <point x="134" y="259" smooth="yes"/>
      <point x="123" y="284" smooth="yes"/>
      <point x="123" y="330" type="curve" smooth="yes"/>
      <point x="123" y="372"/>
      <point x="156" y="409"/>
      <point x="212" y="430" type="curve"/>
      <point x="314" y="308" type="line" smooth="yes"/>
      <point x="357" y="257" smooth="yes"/>
      <point x="368" y="232" smooth="yes"/>
      <point x="368" y="187" type="curve" smooth="yes"/>
      <point x="368" y="144"/>
      <point x="334" y="106"/>
      <point x="279" y="87" type="curve"/>
    </contour>
  </outline>
</glyph>
<glyph name="ordfeminine" format="1">
  <advance width="433"/>
  <unicode hex="00AA"/>
  <outline>
    <contour>
      <point x="129" y="631" type="line" name="hr00"/>
      <point x="137" y="675" smooth="yes"/>
      <point x="166" y="699" smooth="yes"/>
      <point x="211" y="699" type="curve" smooth="yes"/>
      <point x="260" y="699" smooth="yes"/>
      <point x="283" y="673" smooth="yes"/>
      <point x="283" y="620" type="curve" smooth="yes"/>
      <point x="283" y="584" type="line"/>
      <point x="190" y="569" type="line" smooth="yes"/>
      <point x="87" y="553" smooth="yes"/>
      <point x="44" y="518" smooth="yes"/>
      <point x="44" y="446" type="curve" smooth="yes"/>
      <point x="44" y="378" smooth="yes"/>
      <point x="82" y="340" smooth="yes"/>
      <point x="150" y="340" type="curve" smooth="yes"/>
      <point x="199" y="340"/>
      <point x="248" y="363"/>
      <point x="289" y="405" type="curve"/>
      <point x="310" y="350" type="line"/>
      <point x="361" y="350" type="line"/>
      <point x="361" y="620" type="line" smooth="yes"/>
      <point x="361" y="715" smooth="yes"/>
      <point x="313" y="760" smooth="yes"/>
      <point x="214" y="760" type="curve" smooth="yes"/>
      <point x="133" y="760"/>
      <point x="83" y="723"/>
      <point x="68" y="650" type="curve"/>
    </contour>
    <contour>
      <point x="173" y="398" type="curve" smooth="yes"/>
      <point x="140" y="398" smooth="yes"/>
      <point x="121" y="416" smooth="yes"/>
      <point x="121" y="449" type="curve" smooth="yes"/>
      <point x="121" y="487" smooth="yes"/>
      <point x="146" y="509" smooth="yes"/>
      <point x="201" y="519" type="curve" smooth="yes"/>
      <point x="283" y="533" type="line"/>
      <point x="283" y="455" type="line"/>
      <point x="245" y="416" smooth="yes"/>
      <point x="210" y="398" smooth="yes"/>
    </contour>
    <contour>
      <point x="36" y="228" type="line"/>
      <point x="372" y="228" type="line"/>
      <point x="372" y="279" type="line"/>
      <point x="36" y="279" type="line"/>
    </contour>
  </outline>
</glyph>
<glyph name="logicalnot" format="1">
  <advance width="580"/>
  <unicode hex="00AC"/>
  <outline>
    <contour>
      <point x="92" y="284" type="line" name="hr00"/>
      <point x="424" y="284" type="line"/>
      <point x="424" y="146" type="line"/>
      <point x="488" y="146" type="line"/>
      <point x="488" y="352" type="line"/>
      <point x="92" y="352" type="line"/>
    </contour>
  </outline>
</glyph>
<glyph name="degree" format="1">
  <advance width="421"/>
  <unicode hex="00B0"/>
  <outline>
    <contour>
      <point x="210" y="401" type="curve" smooth="yes" name="hr00"/>
      <point x="141" y="401" smooth="yes"/>
      <point x="118" y="432" smooth="yes"/>
      <point x="118" y="525" type="curve" smooth="yes"/>
      <point x="118" y="618" smooth="yes"/>
      <point x="141" y="649" smooth="yes"/>
      <point x="210" y="649" type="curve" smooth="yes"/>
      <point x="279" y="649" smooth="yes"/>
      <point x="302" y="618" smooth="yes"/>
      <point x="302" y="525" type="curve" smooth="yes"/>
      <point x="302" y="432" smooth="yes"/>
      <point x="279" y="401" smooth="yes"/>
    </contour>
    <contour>
      <point x="210" y="340" type="curve" smooth="yes"/>
      <point x="329" y="340" smooth="yes"/>
      <point x="379" y="394" smooth="yes"/>
      <point x="379" y="525" type="curve" smooth="yes"/>
      <point x="379" y="656" smooth="yes"/>
      <point x="330" y="710" smooth="yes"/>
      <point x="210" y="710" type="curve" smooth="yes"/>
      <point x="91" y="710" smooth="yes"/>
      <point x="42" y="656" smooth="yes"/>
      <point x="42" y="525" type="curve" smooth="yes"/>
      <point x="42" y="394" smooth="yes"/>
      <point x="91" y="340" smooth="yes"/>
    </contour>
  </outline>
</glyph>
<glyph name="mu" format="1">
  <advance width="637"/>
  <unicode hex="00B5"/>
  <outline>
    <contour>
      <point x="200" y="-227" type="line" name="hr00"/>
      <point x="200" y="59" type="line"/>
      <point x="263" y="13" smooth="yes"/>
      <point x="339" y="-14" smooth="yes"/>
      <point x="407" y="-14" type="curve" smooth="yes"/>
      <point x="528" y="-14" smooth="yes"/>
      <point x="578" y="38" smooth="yes"/>
      <point x="578" y="164" type="curve" smooth="yes"/>
      <point x="578" y="572" type="line"/>
      <point x="492" y="572" type="line"/>
      <point x="492" y="170" type="line" smooth="yes"/>
      <point x="492" y="87" smooth="yes"/>
      <point x="462" y="56" smooth="yes"/>
      <point x="384" y="56" type="curve" smooth="yes"/>
      <point x="320" y="56"/>
      <point x="257" y="81"/>
      <point x="200" y="130" type="curve"/>
      <point x="200" y="572" type="line"/>
      <point x="114" y="572" type="line"/>
      <point x="114" y="-227" type="line"/>
    </contour>
  </outline>
</glyph>
<glyph name="cedilla" format="1">
  <advance width="292"/>
  <unicode hex="00B8"/>
  <outline>
    <contour>
      <point x="171" y="15" type="line" name="hr00"/>
      <point x="130" y="15" type="line"/>
      <point x="104" y="-82" type="line"/>
      <point x="174" y="-93" smooth="yes"/>
      <point x="199" y="-111" smooth="yes"/>
      <point x="199" y="-151" type="curve" smooth="yes"/>
      <point x="199" y="-182" smooth="yes"/>
      <point x="180" y="-202" smooth="yes"/>
      <point x="150" y="-202" type="curve" smooth="yes"/>
      <point x="122" y="-202"/>
      <point x="109" y="-185"/>
      <point x="109" y="-150" type="curve"/>
      <point x="53" y="-157" type="line"/>
      <point x="55" y="-219" smooth="yes"/>
      <point x="88" y="-252" smooth="yes"/>
      <point x="150" y="-252" type="curve" smooth="yes"/>
      <point x="220" y="-252" smooth="yes"/>
      <point x="265" y="-212" smooth="yes"/>
      <point x="265" y="-151" type="curve" smooth="yes"/>
      <point x="265" y="-96"/>
      <point x="228" y="-63"/>
      <point x="156" y="-53" type="curve"/>
    </contour>
  </outline>
</glyph>
<glyph name="ordmasculine" format="1">
  <advance width="421"/>
  <unicode hex="00BA"/>
  <outline>
    <contour>
      <point x="42" y="228" type="line" name="hr00"/>
      <point x="378" y="228" type="line"/>
      <point x="378" y="279" type="line"/>
      <point x="42" y="279" type="line"/>
    </contour>
    <contour>
      <point x="210" y="402" type="curve" smooth="yes"/>
      <point x="140" y="402" smooth="yes"/>
      <point x="111" y="446" smooth="yes"/>
      <point x="111" y="550" type="curve" smooth="yes"/>
      <point x="111" y="654" smooth="yes"/>
      <point x="141" y="699" smooth="yes"/>
      <point x="210" y="699" type="curve" smooth="yes"/>
      <point x="280" y="699" smooth="yes"/>
      <point x="310" y="655" smooth="yes"/>
      <point x="310" y="550" type="curve" smooth="yes"/>
      <point x="310" y="446" smooth="yes"/>
      <point x="280" y="402" smooth="yes"/>
    </contour>
    <contour>
      <point x="210" y="340" type="curve" smooth="yes"/>
      <point x="329" y="340" smooth="yes"/>
      <point x="389" y="411" smooth="yes"/>
      <point x="389" y="550" type="curve" smooth="yes"/>
      <point x="389" y="690" smooth="yes"/>
      <point x="329" y="760" smooth="yes"/>
      <point x="210" y="760" type="curve" smooth="yes"/>
      <point x="92" y="760" smooth="yes"/>
      <point x="32" y="689" smooth="yes"/>
      <point x="32" y="550" type="curve" smooth="yes"/>
      <point x="32" y="411" smooth="yes"/>
      <point x="92" y="340" smooth="yes"/>
    </contour>
  </outline>
</glyph>
<glyph name="AE" format="1">
  <advance width="911"/>
  <unicode hex="00C6"/>
  <outline>
    <contour>
      <point x="340" y="730" type="line" name="hr00"/>
      <point x="29" y="0" type="line"/>
      <point x="116" y="0" type="line"/>
      <point x="249" y="316" type="line"/>
      <point x="457" y="316" type="line"/>
      <point x="457" y="0" type="line"/>
      <point x="865" y="0" type="line"/>
      <point x="865" y="70" type="line"/>
      <point x="545" y="70" type="line"/>
      <point x="545" y="316" type="line"/>
      <point x="824" y="316" type="line"/>
      <point x="824" y="386" type="line"/>
      <point x="545" y="386" type="line"/>
      <point x="545" y="660" type="line"/>
      <point x="845" y="660" type="line"/>
      <point x="845" y="730" type="line"/>
    </contour>
    <contour>
      <point x="457" y="660" type="line"/>
      <point x="457" y="386" type="line"/>
      <point x="279" y="386" type="line"/>
      <point x="394" y="660" type="line"/>
    </contour>
  </outline>
</glyph>
<glyph name="ae" format="1">
  <advance width="928"/>
  <unicode hex="00E6"/>
  <outline>
    <contour>
      <point x="647" y="-14" type="curve" smooth="yes" name="hr00"/>
      <point x="783" y="-14"/>
      <point x="859" y="48"/>
      <point x="870" y="167" type="curve"/>
      <point x="799" y="171" type="line"/>
      <point x="792" y="93" smooth="yes"/>
      <point x="742" y="56" smooth="yes"/>
      <point x="647" y="56" type="curve" smooth="yes"/>
      <point x="533" y="56"/>
      <point x="490" y="116"/>
      <point x="489" y="277" type="curve"/>
      <point x="879" y="277" type="line"/>
      <point x="879" y="298" type="line" smooth="yes"/>
      <point x="879" y="490" smooth="yes"/>
      <point x="801" y="586" smooth="yes"/>
      <point x="643" y="586" type="curve" smooth="yes"/>
      <point x="561" y="586"/>
      <point x="501" y="560"/>
      <point x="461" y="508" type="curve"/>
      <point x="430" y="561" smooth="yes"/>
      <point x="374" y="586" smooth="yes"/>
      <point x="286" y="586" type="curve" smooth="yes"/>
      <point x="176" y="586"/>
      <point x="106" y="532"/>
      <point x="84" y="429" type="curve"/>
      <point x="153" y="409" type="line"/>
      <point x="166" y="477" smooth="yes"/>
      <point x="213" y="516" smooth="yes"/>
      <point x="284" y="516" type="curve" smooth="yes"/>
      <point x="365" y="516" smooth="yes"/>
      <point x="402" y="475" smooth="yes"/>
      <point x="402" y="386" type="curve" smooth="yes"/>
      <point x="402" y="334" type="line"/>
      <point x="253" y="308" type="line" smooth="yes"/>
      <point x="111" y="283" smooth="yes"/>
      <point x="52" y="232" smooth="yes"/>
      <point x="52" y="133" type="curve" smooth="yes"/>
      <point x="52" y="39" smooth="yes"/>
      <point x="106" y="-14" smooth="yes"/>
      <point x="202" y="-14" type="curve" smooth="yes"/>
      <point x="285" y="-14"/>
      <point x="360" y="25"/>
      <point x="432" y="108" type="curve"/>
      <point x="466" y="25" smooth="yes"/>
      <point x="536" y="-14" smooth="yes"/>
    </contour>
    <contour>
      <point x="224" y="52" type="curve" smooth="yes"/>
      <point x="168" y="52" smooth="yes"/>
      <point x="136" y="82" smooth="yes"/>
      <point x="136" y="134" type="curve" smooth="yes"/>
      <point x="136" y="193" smooth="yes"/>
      <point x="174" y="226" smooth="yes"/>
      <point x="262" y="243" type="curve" smooth="yes"/>
      <point x="404" y="269" type="line"/>
      <point x="404" y="239"/>
      <point x="408" y="201"/>
      <point x="415" y="159" type="curve"/>
      <point x="357" y="90" smooth="yes"/>
      <point x="288" y="52" smooth="yes"/>
    </contour>
    <contour>
      <point x="642" y="516" type="curve" smooth="yes"/>
      <point x="739" y="516"/>
      <point x="785" y="463"/>
      <point x="793" y="341" type="curve"/>
      <point x="491" y="341" type="line"/>
      <point x="500" y="460" smooth="yes"/>
      <point x="549" y="516" smooth="yes"/>
    </contour>
  </outline>
</glyph>
<glyph name="divide" format="1">
  <advance width="580"/>
  <unicode hex="00F7"/>
  <outline>
    <contour>
      <point x="92" y="284" type="line" name="hr00"/>
      <point x="488" y="284" type="line"/>
      <point x="488" y="352" type="line"/>
      <point x="92" y="352" type="line"/>
    </contour>
    <contour>
      <point x="289" y="83" type="curve"/>
      <point x="326" y="83" smooth="yes"/>
      <point x="342" y="101" smooth="yes"/>
      <point x="342" y="145" type="curve" smooth="yes"/>
      <point x="342" y="190" smooth="yes"/>
      <point x="327" y="208" smooth="yes"/>
      <point x="289" y="208" type="curve" smooth="yes"/>
      <point x="253" y="208" smooth="yes"/>
      <point x="238" y="190" smooth="yes"/>
      <point x="238" y="145" type="curve" smooth="yes"/>
      <point x="238" y="101" smooth="yes"/>
      <point x="253" y="83" smooth="yes"/>
    </contour>
    <contour>
      <point x="289" y="418" type="curve"/>
      <point x="326" y="418" smooth="yes"/>
      <point x="342" y="436" smooth="yes"/>
      <point x="342" y="480" type="curve" smooth="yes"/>
      <point x="342" y="525" smooth="yes"/>
      <point x="327" y="543" smooth="yes"/>
      <point x="289" y="543" type="curve" smooth="yes"/>
      <point x="253" y="543" smooth="yes"/>
      <point x="238" y="525" smooth="yes"/>
      <point x="238" y="480" type="curve" smooth="yes"/>
      <point x="238" y="436" smooth="yes"/>
      <point x="253" y="418" smooth="yes"/>
    </contour>
  </outline>
</glyph>
<glyph name="thorn" format="1">
  <advance width="629"/>
  <unicode hex="00FE"/>
  <outline>
    <contour>
      <point x="192" y="748" type="line" name="hr00"/>
      <point x="106" y="730" type="line"/>
      <point x="106" y="-222" type="line"/>
      <point x="192" y="-222" type="line"/>
      <point x="192" y="20" type="line"/>
      <point x="245" y="-2" smooth="yes"/>
      <point x="300" y="-14" smooth="yes"/>
      <point x="353" y="-14" type="curve" smooth="yes"/>
      <point x="500" y="-14" smooth="yes"/>
      <point x="575" y="87" smooth="yes"/>
      <point x="575" y="286" type="curve" smooth="yes"/>
      <point x="575" y="485" smooth="yes"/>
      <point x="500" y="586" smooth="yes"/>
      <point x="353" y="586" type="curve" smooth="yes"/>
      <point x="300" y="586"/>
      <point x="240" y="563"/>
      <point x="192" y="525" type="curve"/>
    </contour>
    <contour>
      <point x="344" y="512" type="curve" smooth="yes"/>
      <point x="440" y="512" smooth="yes"/>
      <point x="489" y="435" smooth="yes"/>
      <point x="489" y="286" type="curve" smooth="yes"/>
      <point x="489" y="135" smooth="yes"/>
      <point x="441" y="60" smooth="yes"/>
      <point x="344" y="60" type="curve" smooth="yes"/>
      <point x="287" y="60"/>
      <point x="237" y="70"/>
      <point x="192" y="89" type="curve"/>
      <point x="192" y="450" type="line"/>
      <point x="238" y="491" smooth="yes"/>
      <point x="289" y="512" smooth="yes"/>
    </contour>
  </outline>
</glyph>
<glyph name="kgreenlandic" format="1">
  <advance width="543"/>
  <unicode hex="0138"/>
  <outline>
    <contour>
      <point x="192" y="0" type="line" name="hr00"/>
      <point x="192" y="277" type="line"/>
      <point x="259" y="277" type="line"/>
      <point x="450" y="0" type="line"/>
      <point x="545" y="0" type="line"/>
      <point x="336" y="302" type="line"/>
      <point x="527" y="572" type="line"/>
      <point x="432" y="572" type="line"/>
      <point x="271" y="341" type="line"/>
      <point x="192" y="341" type="line"/>
      <point x="192" y="572" type="line"/>
      <point x="106" y="572" type="line"/>
      <point x="106" y="0" type="line"/>
    </contour>
  </outline>
</glyph>
<glyph name="Eng" format="1">
  <advance width="744"/>
  <unicode hex="014A"/>
  <outline>
    <contour>
      <point x="550" y="730" type="line" name="hr00"/>
      <point x="550" y="163" type="line"/>
      <point x="202" y="730" type="line"/>
      <point x="106" y="730" type="line"/>
      <point x="106" y="0" type="line"/>
      <point x="194" y="0" type="line"/>
      <point x="194" y="586" type="line"/>
      <point x="550" y="6" type="line"/>
      <point x="550" y="-67" type="line" smooth="yes"/>
      <point x="550" y="-130" smooth="yes"/>
      <point x="525" y="-158" smooth="yes"/>
      <point x="472" y="-158" type="curve" smooth="yes"/>
      <point x="438" y="-158"/>
      <point x="416" y="-152"/>
      <point x="395" y="-143" type="curve"/>
      <point x="373" y="-208" type="line"/>
      <point x="406" y="-221" smooth="yes"/>
      <point x="438" y="-226" smooth="yes"/>
      <point x="478" y="-226" type="curve" smooth="yes"/>
      <point x="560" y="-226" smooth="yes"/>
      <point x="638" y="-193" smooth="yes"/>
      <point x="638" y="-67" type="curve" smooth="yes"/>
      <point x="638" y="730" type="line"/>
    </contour>
  </outline>
</glyph>
<glyph name="OE" format="1">
  <advance width="967"/>
  <unicode hex="0152"/>
  <outline>
    <contour>
      <point x="921" y="0" type="line" name="hr00"/>
      <point x="921" y="70" type="line"/>
      <point x="558" y="70" type="line"/>
      <point x="614" y="128"/>
      <point x="634" y="219"/>
      <point x="636" y="336" type="curve"/>
      <point x="880" y="336" type="line"/>
      <point x="880" y="406" type="line"/>
      <point x="636" y="406" type="line"/>
      <point x="632" y="516"/>
      <point x="612" y="603"/>
      <point x="557" y="660" type="curve"/>
      <point x="901" y="660" type="line"/>
      <point x="901" y="730" type="line"/>
      <point x="355" y="730" type="line" smooth="yes"/>
      <point x="127" y="730" smooth="yes"/>
      <point x="74" y="586" smooth="yes"/>
      <point x="74" y="365" type="curve" smooth="yes"/>
      <point x="74" y="142" smooth="yes"/>
      <point x="127" y="0" smooth="yes"/>
      <point x="355" y="0" type="curve" smooth="yes"/>
    </contour>
    <contour>
      <point x="355" y="71" type="curve" smooth="yes"/>
      <point x="198" y="71" smooth="yes"/>
      <point x="162" y="186" smooth="yes"/>
      <point x="162" y="365" type="curve" smooth="yes"/>
      <point x="162" y="544" smooth="yes"/>
      <point x="198" y="659" smooth="yes"/>
      <point x="355" y="659" type="curve" smooth="yes"/>
      <point x="511" y="659" smooth="yes"/>
      <point x="549" y="544" smooth="yes"/>
      <point x="549" y="365" type="curve" smooth="yes"/>
      <point x="549" y="186" smooth="yes"/>
      <point x="511" y="71" smooth="yes"/>
    </contour>
  </outline>
</glyph>
<glyph name="oe" format="1">
  <advance width="989"/>
  <unicode hex="0153"/>
  <outline>
    <contour>
      <point x="708" y="-14" type="curve" smooth="yes" name="hr00"/>
      <point x="870" y="-14"/>
      <point x="921" y="71"/>
      <point x="931" y="167" type="curve"/>
      <point x="860" y="171" type="line"/>
      <point x="853" y="104" smooth="yes"/>
      <point x="815" y="56" smooth="yes"/>
      <point x="708" y="56" type="curve" smooth="yes"/>
      <point x="591" y="56" smooth="yes"/>
      <point x="552" y="128" smooth="yes"/>
      <point x="550" y="277" type="curve" smooth="yes"/>
      <point x="940" y="277" type="line"/>
      <point x="940" y="298" type="line" smooth="yes"/>
      <point x="940" y="447" smooth="yes"/>
      <point x="896" y="586" smooth="yes"/>
      <point x="704" y="586" type="curve" smooth="yes"/>
      <point x="601" y="586"/>
      <point x="541" y="544"/>
      <point x="506" y="482" type="curve"/>
      <point x="471" y="544" smooth="yes"/>
      <point x="409" y="586" smooth="yes"/>
      <point x="302" y="586" type="curve" smooth="yes"/>
      <point x="101" y="586" smooth="yes"/>
      <point x="54" y="441" smooth="yes"/>
      <point x="54" y="286" type="curve" smooth="yes"/>
      <point x="54" y="131" smooth="yes"/>
      <point x="101" y="-14" smooth="yes"/>
      <point x="302" y="-14" type="curve" smooth="yes"/>
      <point x="407" y="-14"/>
      <point x="469" y="26"/>
      <point x="505" y="87" type="curve"/>
      <point x="541" y="21" smooth="yes"/>
      <point x="605" y="-14" smooth="yes"/>
    </contour>
    <contour>
      <point x="302" y="56" type="curve" smooth="yes"/>
      <point x="163" y="56" smooth="yes"/>
      <point x="140" y="168" smooth="yes"/>
      <point x="140" y="286" type="curve" smooth="yes"/>
      <point x="140" y="404" smooth="yes"/>
      <point x="163" y="516" smooth="yes"/>
      <point x="302" y="516" type="curve" smooth="yes"/>
      <point x="445" y="516" smooth="yes"/>
      <point x="464" y="396" smooth="yes"/>
      <point x="464" y="274" type="curve" smooth="yes"/>
      <point x="464" y="160" smooth="yes"/>
      <point x="435" y="56" smooth="yes"/>
    </contour>
    <contour>
      <point x="703" y="516" type="curve" smooth="yes"/>
      <point x="818" y="516"/>
      <point x="848" y="440"/>
      <point x="854" y="341" type="curve"/>
      <point x="552" y="341" type="line"/>
      <point x="560" y="438" smooth="yes"/>
      <point x="593" y="516" smooth="yes"/>
    </contour>
  </outline>
</glyph>
<glyph name="breve" format="1">
  <advance width="421"/>
  <unicode hex="02D8"/>
  <outline>
    <contour>
      <point x="278" y="781" type="line" name="hr00"/>
      <point x="278" y="743" smooth="yes"/>
      <point x="274" y="708" smooth="yes"/>
      <point x="210" y="708" type="curve" smooth="yes"/>
      <point x="146" y="708"/>
      <point x="142" y="743"/>
      <point x="142" y="781" type="curve"/>
      <point x="82" y="781" type="line"/>
      <point x="82" y="710" smooth="yes"/>
      <point x="95" y="642" smooth="yes"/>
      <point x="210" y="642" type="curve" smooth="yes"/>
      <point x="326" y="642"/>
      <point x="339" y="710"/>
      <point x="339" y="781" type="curve"/>
    </contour>
  </outline>
</glyph>
<glyph name="dotaccent" format="1">
  <advance width="270"/>
  <unicode hex="02D9"/>
  <outline>
    <contour>
      <point x="142" y="654" type="curve" name="hr00"/>
      <point x="198" y="654" smooth="yes"/>
      <point x="201" y="692" smooth="yes"/>
      <point x="201" y="725" type="curve" smooth="yes"/>
      <point x="201" y="759" smooth="yes"/>
      <point x="198" y="797" smooth="yes"/>
      <point x="142" y="797" type="curve" smooth="yes"/>
      <point x="88" y="797" smooth="yes"/>
      <point x="85" y="759" smooth="yes"/>
      <point x="85" y="725" type="curve" smooth="yes"/>
      <point x="85" y="692" smooth="yes"/>
      <point x="88" y="654" smooth="yes"/>
    </contour>
  </outline>
</glyph>
<glyph name="ring" format="1">
  <advance width="270"/>
  <unicode hex="02DA"/>
  <outline>
    <contour>
      <point x="134" y="668" type="curve" smooth="yes" name="hr00"/>
      <point x="96" y="668" smooth="yes"/>
      <point x="90" y="702" smooth="yes"/>
      <point x="90" y="725" type="curve" smooth="yes"/>
      <point x="90" y="749" smooth="yes"/>
      <point x="96" y="782" smooth="yes"/>
      <point x="134" y="782" type="curve" smooth="yes"/>
      <point x="175" y="782" smooth="yes"/>
      <point x="181" y="749" smooth="yes"/>
      <point x="181" y="725" type="curve" smooth="yes"/>
      <point x="181" y="702" smooth="yes"/>
      <point x="175" y="668" smooth="yes"/>
    </contour>
    <contour>
      <point x="134" y="621" type="curve" smooth="yes"/>
      <point x="223" y="621" smooth="yes"/>
      <point x="238" y="681" smooth="yes"/>
      <point x="238" y="725" type="curve" smooth="yes"/>
      <point x="238" y="769" smooth="yes"/>
      <point x="223" y="830" smooth="yes"/>
      <point x="134" y="830" type="curve" smooth="yes"/>
      <point x="48" y="830" smooth="yes"/>
      <point x="32" y="769" smooth="yes"/>
      <point x="32" y="725" type="curve" smooth="yes"/>
      <point x="32" y="681" smooth="yes"/>
      <point x="48" y="621" smooth="yes"/>
    </contour>
  </outline>
</glyph>
<glyph name="ogonek" format="1">
  <advance width="328"/>
  <unicode hex="02DB"/>
  <outline>
    <contour>
      <point x="165" y="-209" type="curve" name="hr00"/>
      <point x="224" y="-209"/>
      <point x="271" y="-175"/>
      <point x="302" y="-120" type="curve"/>
      <point x="261" y="-94" type="line"/>
      <point x="240" y="-130" smooth="yes"/>
      <point x="209" y="-153" smooth="yes"/>
      <point x="173" y="-153" type="curve" smooth="yes"/>
      <point x="143" y="-153" smooth="yes"/>
      <point x="127" y="-136" smooth="yes"/>
      <point x="127" y="-107" type="curve" smooth="yes"/>
      <point x="127" y="-78" smooth="yes"/>
      <point x="140" y="-61" smooth="yes"/>
      <point x="190" y="-30" type="curve" smooth="yes"/>
      <point x="238" y="0" type="line"/>
      <point x="214" y="35" type="line"/>
      <point x="157" y="-1" type="line" smooth="yes"/>
      <point x="90" y="-43" smooth="yes"/>
      <point x="64" y="-71" smooth="yes"/>
      <point x="64" y="-119" type="curve" smooth="yes"/>
      <point x="64" y="-176" smooth="yes"/>
      <point x="101" y="-209" smooth="yes"/>
    </contour>
  </outline>
</glyph>
<glyph name="quoteright" format="1">
  <advance width="275"/>
  <unicode hex="2019"/>
  <outline>
    <contour>
      <point x="101" y="720" type="curve" smooth="yes" name="hr00"/>
      <point x="101" y="690" smooth="yes"/>
      <point x="114" y="669" smooth="yes"/>
      <point x="114" y="648" type="curve" smooth="yes"/>
      <point x="114" y="608"/>
      <point x="96" y="588"/>
      <point x="74" y="569" type="curve"/>
      <point x="100" y="538" type="line"/>
      <point x="115" y="549" smooth="yes"/>
      <point x="207" y="619" smooth="yes"/>
      <point x="207" y="720" type="curve" smooth="yes"/>
      <point x="207" y="750" smooth="yes"/>
      <point x="202" y="783" smooth="yes"/>
      <point x="152" y="783" type="curve" smooth="yes"/>
      <point x="104" y="783" smooth="yes"/>
      <point x="101" y="750" smooth="yes"/>
    </contour>
  </outline>
</glyph>
<glyph name="dagger" format="1">
  <advance width="448"/>
  <unicode hex="2020"/>
  <outline>
    <contour>
      <point x="430" y="572" type="line" name="hr00"/>
      <point x="382" y="572" type="line"/>
      <point x="269" y="560" type="line"/>
      <point x="274" y="730" type="line"/>
      <point x="174" y="730" type="line"/>
      <point x="178" y="560" type="line"/>
      <point x="66" y="572" type="line"/>
      <point x="18" y="572" type="line"/>
      <point x="18" y="494" type="line"/>
      <point x="66" y="494" type="line"/>
      <point x="180" y="505" type="line"/>
      <point x="194" y="0" type="line"/>
      <point x="254" y="0" type="line"/>
      <point x="268" y="505" type="line"/>
      <point x="382" y="494" type="line"/>
      <point x="430" y="494" type="line"/>
    </contour>
  </outline>
</glyph>
<glyph name="daggerdbl" format="1">
  <advance width="448"/>
  <unicode hex="2021"/>
  <outline>
    <contour>
      <point x="18" y="158" type="line" name="hr00"/>
      <point x="66" y="158" type="line"/>
      <point x="183" y="169" type="line"/>
      <point x="174" y="0" type="line"/>
      <point x="274" y="0" type="line"/>
      <point x="264" y="169" type="line"/>
      <point x="382" y="158" type="line"/>
      <point x="430" y="158" type="line"/>
      <point x="430" y="236" type="line"/>
      <point x="382" y="236" type="line"/>
      <point x="261" y="224" type="line"/>
      <point x="254" y="365" type="line"/>
      <point x="261" y="505" type="line"/>
      <point x="382" y="494" type="line"/>
      <point x="430" y="494" type="line"/>
      <point x="430" y="572" type="line"/>
      <point x="382" y="572" type="line"/>
      <point x="264" y="560" type="line"/>
      <point x="274" y="730" type="line"/>
      <point x="174" y="730" type="line"/>
      <point x="183" y="560" type="line"/>
      <point x="66" y="572" type="line"/>
      <point x="18" y="572" type="line"/>
      <point x="18" y="494" type="line"/>
      <point x="66" y="494" type="line"/>
      <point x="186" y="506" type="line"/>
      <point x="194" y="365" type="line"/>
      <point x="186" y="224" type="line"/>
      <point x="66" y="236" type="line"/>
      <point x="18" y="236" type="line"/>
    </contour>
  </outline>
</glyph>
<glyph name="guilsinglright" format="1">
  <advance width="305"/>
  <unicode hex="203A"/>
  <outline>
    <contour>
      <point x="54" y="160" type="line" name="hr00"/>
      <point x="106" y="109" type="line"/>
      <point x="277" y="297" type="line"/>
      <point x="277" y="333" type="line"/>
      <point x="106" y="521" type="line"/>
      <point x="54" y="470" type="line"/>
      <point x="176" y="315" type="line"/>
    </contour>
  </outline>
</glyph>
<glyph name="fraction" format="1">
  <advance width="271"/>
  <unicode hex="2044"/>
  <outline>
    <contour>
      <point x="-2" y="-66" type="line" name="hr00"/>
      <point x="58" y="-66" type="line"/>
      <point x="273" y="735" type="line"/>
      <point x="212" y="735" type="line"/>
    </contour>
  </outline>
</glyph>
<glyph name="zeroinferior" format="1">
  <advance width="391"/>
  <unicode hex="2080"/>
  <outline>
    <contour>
      <point x="195" y="-115" type="curve" smooth="yes" name="hr00"/>
      <point x="318" y="-115" smooth="yes"/>
      <point x="346" y="-22" smooth="yes"/>
      <point x="346" y="96" type="curve" smooth="yes"/>
      <point x="346" y="213" smooth="yes"/>
      <point x="318" y="306" smooth="yes"/>
      <point x="195" y="306" type="curve" smooth="yes"/>
      <point x="72" y="306" smooth="yes"/>
      <point x="43" y="213" smooth="yes"/>
      <point x="43" y="96" type="curve" smooth="yes"/>
      <point x="43" y="-22" smooth="yes"/>
      <point x="72" y="-115" smooth="yes"/>
    </contour>
    <contour>
      <point x="195" y="-55" type="curve" smooth="yes"/>
      <point x="134" y="-55" smooth="yes"/>
      <point x="120" y="0" smooth="yes"/>
      <point x="120" y="96" type="curve" smooth="yes"/>
      <point x="120" y="191" smooth="yes"/>
      <point x="134" y="246" smooth="yes"/>
      <point x="195" y="246" type="curve" smooth="yes"/>
      <point x="255" y="246" smooth="yes"/>
      <point x="269" y="191" smooth="yes"/>
      <point x="269" y="96" type="curve" smooth="yes"/>
      <point x="269" y="0" smooth="yes"/>
      <point x="255" y="-55" smooth="yes"/>
    </contour>
  </outline>
</glyph>
<glyph name="sixinferior" format="1">
  <advance width="391"/>
  <unicode hex="2086"/>
  <outline>
    <contour>
      <point x="332" y="198" type="line" name="hr00"/>
      <point x="326" y="271" smooth="yes"/>
      <point x="281" y="307" smooth="yes"/>
      <point x="195" y="307" type="curve" smooth="yes"/>
      <point x="76" y="307" smooth="yes"/>
      <point x="44" y="217" smooth="yes"/>
      <point x="44" y="69" type="curve" smooth="yes"/>
      <point x="44" y="-39" smooth="yes"/>
      <point x="83" y="-115" smooth="yes"/>
      <point x="195" y="-115" type="curve" smooth="yes"/>
      <point x="293" y="-115" smooth="yes"/>
      <point x="340" y="-59" smooth="yes"/>
      <point x="340" y="15" type="curve" smooth="yes"/>
      <point x="340" y="79" smooth="yes"/>
      <point x="304" y="135" smooth="yes"/>
      <point x="207" y="135" type="curve" smooth="yes"/>
      <point x="180" y="135"/>
      <point x="151" y="132"/>
      <point x="119" y="124" type="curve"/>
      <point x="122" y="199" smooth="yes"/>
      <point x="137" y="246" smooth="yes"/>
      <point x="196" y="246" type="curve" smooth="yes"/>
      <point x="238" y="246"/>
      <point x="263" y="228"/>
      <point x="267" y="190" type="curve"/>
    </contour>
    <contour>
      <point x="188" y="77" type="curve" smooth="yes"/>
      <point x="247" y="77" smooth="yes"/>
      <point x="264" y="45" smooth="yes"/>
      <point x="264" y="15" type="curve" smooth="yes"/>
      <point x="264" y="-26" smooth="yes"/>
      <point x="244" y="-55" smooth="yes"/>
      <point x="194" y="-55" type="curve" smooth="yes"/>
      <point x="144" y="-55"/>
      <point x="122" y="-23"/>
      <point x="119" y="68" type="curve"/>
      <point x="143" y="74" smooth="yes"/>
      <point x="163" y="77" smooth="yes"/>
    </contour>
  </outline>
</glyph>
<glyph name="lira" format="1">
  <advance width="630"/>
  <unicode hex="20A4"/>
  <outline>
    <contour>
      <point x="68" y="366" type="line" name="hr00"/>
      <point x="139" y="366" type="line"/>
      <point x="139" y="266" type="line"/>
      <point x="68" y="266" type="line"/>
      <point x="68" y="211" type="line"/>
      <point x="139" y="211" type="line"/>
      <point x="139" y="182" type="line" smooth="yes"/>
      <point x="139" y="144"/>
      <point x="130" y="103"/>
      <point x="85" y="65" type="curve"/>
      <point x="85" y="0" type="line"/>
      <point x="580" y="0" type="line"/>
      <point x="580" y="71" type="line"/>
      <point x="178" y="71" type="line"/>
      <point x="216" y="101" smooth="yes"/>
      <point x="227" y="131" smooth="yes"/>
      <point x="227" y="194" type="curve" smooth="yes"/>
      <point x="227" y="211" type="line"/>
      <point x="479" y="211" type="line"/>
      <point x="479" y="266" type="line"/>
      <point x="227" y="266" type="line"/>
      <point x="227" y="366" type="line"/>
      <point x="479" y="366" type="line"/>
      <point x="479" y="421" type="line"/>
      <point x="227" y="421" type="line"/>
      <point x="227" y="530" type="line" smooth="yes"/>
      <point x="227" y="620" smooth="yes"/>
      <point x="250" y="673" smooth="yes"/>
      <point x="353" y="673" type="curve" smooth="yes"/>
      <point x="447" y="673"/>
      <point x="487" y="629"/>
      <point x="487" y="530" type="curve"/>
      <point x="563" y="535" type="line"/>
      <point x="563" y="674" smooth="yes"/>
      <point x="506" y="744" smooth="yes"/>
      <point x="348" y="744" type="curve" smooth="yes"/>
      <point x="191" y="744" smooth="yes"/>
      <point x="139" y="664" smooth="yes"/>
      <point x="139" y="530" type="curve" smooth="yes"/>
      <point x="139" y="421" type="line"/>
      <point x="68" y="421" type="line"/>
    </contour>
  </outline>
</glyph>
<glyph name="Euro" format="1">
  <advance width="630"/>
  <unicode hex="20AC"/>
  <outline>
    <contour>
      <point x="371" y="-14" type="curve" name="hr00"/>
      <point x="512" y="-14"/>
      <point x="590" y="50"/>
      <point x="593" y="168" type="curve"/>
      <point x="518" y="172" type="line"/>
      <point x="518" y="102" smooth="yes"/>
      <point x="461" y="57" smooth="yes"/>
      <point x="371" y="57" type="curve" smooth="yes"/>
      <point x="266" y="57"/>
      <point x="216" y="121"/>
      <point x="203" y="268" type="curve"/>
      <point x="437" y="268" type="line"/>
      <point x="437" y="323" type="line"/>
      <point x="200" y="323" type="line"/>
      <point x="200" y="407" type="line"/>
      <point x="437" y="407" type="line"/>
      <point x="437" y="462" type="line"/>
      <point x="203" y="462" type="line"/>
      <point x="215" y="609" smooth="yes"/>
      <point x="267" y="673" smooth="yes"/>
      <point x="371" y="673" type="curve" smooth="yes"/>
      <point x="459" y="673"/>
      <point x="517" y="628"/>
      <point x="517" y="560" type="curve"/>
      <point x="593" y="564" type="line"/>
      <point x="590" y="680" smooth="yes"/>
      <point x="511" y="744" smooth="yes"/>
      <point x="371" y="744" type="curve" smooth="yes"/>
      <point x="216" y="744"/>
      <point x="134" y="653"/>
      <point x="118" y="462" type="curve"/>
      <point x="47" y="462" type="line"/>
      <point x="47" y="407" type="line"/>
      <point x="115" y="407" type="line"/>
      <point x="114" y="396" smooth="yes"/>
      <point x="114" y="386" smooth="yes"/>
      <point x="114" y="365" type="curve" smooth="yes"/>
      <point x="114" y="344"/>
      <point x="114" y="333"/>
      <point x="115" y="323" type="curve"/>
      <point x="47" y="323" type="line"/>
      <point x="47" y="268" type="line"/>
      <point x="118" y="268" type="line"/>
      <point x="134" y="77" smooth="yes"/>
      <point x="216" y="-14" smooth="yes"/>
    </contour>
  </outline>
</glyph>
<glyph name="uni2113" format="1">
  <advance width="345"/>
  <unicode hex="2113"/>
  <outline>
    <contour>
      <point x="313" y="60" type="line" name="hr00"/>
      <point x="291" y="55" smooth="yes"/>
      <point x="274" y="52" smooth="yes"/>
      <point x="259" y="52" type="curve" smooth="yes"/>
      <point x="220" y="52" smooth="yes"/>
      <point x="205" y="73" smooth="yes"/>
      <point x="205" y="134" type="curve" smooth="yes"/>
      <point x="205" y="763" type="line"/>
      <point x="119" y="739" type="line"/>
      <point x="119" y="131" type="line" smooth="yes"/>
      <point x="119" y="61" smooth="yes"/>
      <point x="126" y="-14" smooth="yes"/>
      <point x="231" y="-14" type="curve" smooth="yes"/>
      <point x="255" y="-14"/>
      <point x="286" y="-9"/>
      <point x="323" y="2" type="curve"/>
    </contour>
  </outline>
</glyph>
<glyph name="trademark" format="1">
  <advance width="968"/>
  <unicode hex="2122"/>
  <outline>
    <contour>
      <point x="761" y="730" type="line" name="hr00"/>
      <point x="646" y="417" type="line"/>
      <point x="540" y="730" type="line"/>
      <point x="442" y="730" type="line"/>
      <point x="442" y="288" type="line"/>
      <point x="510" y="288" type="line"/>
      <point x="510" y="629" type="line"/>
      <point x="613" y="334" type="line"/>
      <point x="677" y="334" type="line"/>
      <point x="789" y="631" type="line"/>
      <point x="789" y="288" type="line"/>
      <point x="858" y="288" type="line"/>
      <point x="858" y="730" type="line"/>
    </contour>
    <contour>
      <point x="70" y="671" type="line"/>
      <point x="182" y="671" type="line"/>
      <point x="182" y="288" type="line"/>
      <point x="250" y="288" type="line"/>
      <point x="250" y="671" type="line"/>
      <point x="362" y="671" type="line"/>
      <point x="362" y="730" type="line"/>
      <point x="70" y="730" type="line"/>
    </contour>
  </outline>
</glyph>
<glyph name="Omega" format="1">
  <advance width="809"/>
  <unicode hex="2126"/>
  <outline>
    <contour>
      <point x="100" y="0" type="line" name="hr00"/>
      <point x="306" y="0" type="line"/>
      <point x="306" y="203" type="line"/>
      <point x="205" y="227" smooth="yes"/>
      <point x="160" y="295" smooth="yes"/>
      <point x="160" y="421" type="curve" smooth="yes"/>
      <point x="160" y="597" smooth="yes"/>
      <point x="234" y="673" smooth="yes"/>
      <point x="404" y="673" type="curve" smooth="yes"/>
      <point x="575" y="673" smooth="yes"/>
      <point x="649" y="597" smooth="yes"/>
      <point x="649" y="421" type="curve" smooth="yes"/>
      <point x="649" y="295"/>
      <point x="604" y="227"/>
      <point x="503" y="203" type="curve"/>
      <point x="503" y="0" type="line"/>
      <point x="709" y="0" type="line"/>
      <point x="709" y="60" type="line"/>
      <point x="577" y="60" type="line"/>
      <point x="577" y="158" type="line"/>
      <point x="685" y="202" smooth="yes"/>
      <point x="737" y="289" smooth="yes"/>
      <point x="737" y="427" type="curve" smooth="yes"/>
      <point x="737" y="642" smooth="yes"/>
      <point x="629" y="745" smooth="yes"/>
      <point x="404" y="745" type="curve" smooth="yes"/>
      <point x="180" y="745" smooth="yes"/>
      <point x="72" y="642" smooth="yes"/>
      <point x="72" y="427" type="curve" smooth="yes"/>
      <point x="72" y="289"/>
      <point x="123" y="203"/>
      <point x="231" y="159" type="curve"/>
      <point x="231" y="60" type="line"/>
      <point x="100" y="60" type="line"/>
    </contour>
  </outline>
</glyph>
<glyph name="partialdiff" format="1">
  <advance width="611"/>
  <unicode hex="2202"/>
  <outline>
    <contour>
      <point x="258" y="-14" type="curve" name="hr00"/>
      <point x="467" y="-14" smooth="yes"/>
      <point x="557" y="103" smooth="yes"/>
      <point x="557" y="373" type="curve" smooth="yes"/>
      <point x="557" y="526"/>
      <point x="507" y="672"/>
      <point x="421" y="764" type="curve"/>
      <point x="370" y="714" type="line"/>
      <point x="434" y="639"/>
      <point x="468" y="555"/>
      <point x="475" y="451" type="curve"/>
      <point x="448" y="488" smooth="yes"/>
      <point x="407" y="506" smooth="yes"/>
      <point x="348" y="506" type="curve" smooth="yes"/>
      <point x="148" y="506" smooth="yes"/>
      <point x="54" y="398" smooth="yes"/>
      <point x="54" y="168" type="curve" smooth="yes"/>
      <point x="54" y="46" smooth="yes"/>
      <point x="122" y="-14" smooth="yes"/>
    </contour>
    <contour>
      <point x="270" y="55" type="curve" smooth="yes"/>
      <point x="184" y="55" smooth="yes"/>
      <point x="141" y="97" smooth="yes"/>
      <point x="141" y="180" type="curve" smooth="yes"/>
      <point x="141" y="356" smooth="yes"/>
      <point x="203" y="437" smooth="yes"/>
      <point x="337" y="437" type="curve" smooth="yes"/>
      <point x="422" y="437" smooth="yes"/>
      <point x="465" y="395" smooth="yes"/>
      <point x="465" y="312" type="curve" smooth="yes"/>
      <point x="465" y="136" smooth="yes"/>
      <point x="403" y="55" smooth="yes"/>
    </contour>
  </outline>
</glyph>
<glyph name="Delta" format="1">
  <advance width="618"/>
  <unicode hex="2206"/>
  <outline>
    <contour>
      <point x="262" y="730" type="line" name="hr00"/>
      <point x="-6" y="0" type="line"/>
      <point x="624" y="0" type="line"/>
      <point x="356" y="730" type="line"/>
    </contour>
    <contour>
      <point x="309" y="633" type="line"/>
      <point x="515" y="60" type="line"/>
      <point x="102" y="60" type="line"/>
    </contour>
  </outline>
</glyph>
<glyph name="approxequal" format="1">
  <advance width="580"/>
  <unicode hex="2248"/>
  <outline>
    <contour>
      <point x="92" y="384" type="line"/>
      <point x="119" y="368" smooth="yes"/>
      <point x="148" y="362" smooth="yes"/>
      <point x="176" y="362" type="curve" smooth="yes"/>
      <point x="251" y="362" smooth="yes"/>
      <point x="328" y="405" smooth="yes"/>
      <point x="404" y="405" type="curve" smooth="yes" name="hr01"/>
      <point x="432" y="405"/>
      <point x="461" y="399"/>
      <point x="488" y="384" type="curve"/>
      <point x="488" y="452" type="line"/>
      <point x="461" y="466" smooth="yes"/>
      <point x="431" y="471" smooth="yes"/>
      <point x="404" y="471" type="curve" smooth="yes"/>
      <point x="328" y="471" smooth="yes"/>
      <point x="251" y="428" smooth="yes"/>
      <point x="176" y="428" type="curve" smooth="yes" name="hr02"/>
      <point x="148" y="428"/>
      <point x="119" y="433"/>
      <point x="92" y="452" type="curve"/>
    </contour>
    <contour>
      <point x="92" y="184" type="line"/>
      <point x="119" y="168" smooth="yes"/>
      <point x="148" y="162" smooth="yes"/>
      <point x="176" y="162" type="curve" smooth="yes"/>
      <point x="251" y="162" smooth="yes"/>
      <point x="328" y="205" smooth="yes"/>
      <point x="404" y="205" type="curve" smooth="yes" name="hr03"/>
      <point x="432" y="205"/>
      <point x="461" y="199"/>
      <point x="488" y="184" type="curve"/>
      <point x="488" y="252" type="line"/>
      <point x="461" y="266" smooth="yes"/>
      <point x="431" y="271" smooth="yes"/>
      <point x="404" y="271" type="curve" smooth="yes"/>
      <point x="328" y="271" smooth="yes"/>
      <point x="251" y="228" smooth="yes"/>
      <point x="176" y="228" type="curve" smooth="yes" name="hr04"/>
      <point x="148" y="228"/>
      <point x="119" y="233"/>
      <point x="92" y="252" type="curve"/>
    </contour>
  </outline>
</glyph>
<glyph name="lozenge" format="1">
  <advance width="568"/>
  <unicode hex="25CA"/>
  <outline>
    <contour>
      <point x="237" y="770" type="line" name="hr00"/>
      <point x="42" y="335" type="line"/>
      <point x="237" y="-100" type="line"/>
      <point x="331" y="-100" type="line"/>
      <point x="526" y="335" type="line"/>
      <point x="331" y="770" type="line"/>
    </contour>
    <contour>
      <point x="284" y="-20" type="line"/>
      <point x="129" y="335" type="line"/>
      <point x="284" y="690" type="line"/>
      <point x="439" y="335" type="line"/>
    </contour>
  </outline>
</glyph>
<glyph name="apple" format="1">
  <advance width="919"/>
  <unicode hex="F8FF"/>
  <outline>
    <contour>
      <point x="554" y="-89" type="curve" smooth="yes"/>
      <point x="557" y="-88" smooth="yes"/>
      <point x="561" y="-88" smooth="yes"/>
      <point x="564" y="-88" type="curve" smooth="yes"/>
      <point x="572" y="-88" smooth="yes"/>
      <point x="579" y="-89" smooth="yes"/>
      <point x="587" y="-89" type="curve" smooth="yes"/>
      <point x="613" y="-89" smooth="yes"/>
      <point x="615" y="-70" smooth="yes"/>
      <point x="632" y="-60" type="curve" smooth="yes"/>
      <point x="647" y="-52" smooth="yes"/>
      <point x="668" y="-51" smooth="yes"/>
      <point x="681" y="-42" type="curve" smooth="yes"/>
      <point x="694" y="-33" smooth="yes"/>
      <point x="699" y="-11" smooth="yes"/>
      <point x="711" y="1" type="curve" smooth="yes"/>
      <point x="721" y="11" smooth="yes"/>
      <point x="737" y="12" smooth="yes"/>
      <point x="746" y="23" type="curve" smooth="yes"/>
      <point x="757" y="36" smooth="yes"/>
      <point x="756" y="60" smooth="yes"/>
      <point x="764" y="74" type="curve" smooth="yes"/>
      <point x="774" y="91" smooth="yes"/>
      <point x="798" y="92" smooth="yes"/>
      <point x="798" y="120" type="curve" smooth="yes"/>
      <point x="798" y="130" smooth="yes"/>
      <point x="796" y="141" smooth="yes"/>
      <point x="796" y="152" type="curve" smooth="yes"/>
      <point x="796" y="177"/>
      <point x="818" y="180"/>
      <point x="821" y="200" type="curve"/>
      <point x="821" y="214" smooth="yes"/>
      <point x="810" y="229" smooth="yes"/>
      <point x="810" y="244" type="curve" smooth="yes" name="hr01"/>
      <point x="810" y="257" smooth="yes"/>
      <point x="821" y="269" smooth="yes"/>
      <point x="821" y="283" type="curve" smooth="yes"/>
      <point x="821" y="305" smooth="yes"/>
      <point x="797" y="319" smooth="yes"/>
      <point x="797" y="344" type="curve" smooth="yes"/>
      <point x="797" y="352" smooth="yes"/>
      <point x="798" y="360" smooth="yes"/>
      <point x="798" y="369" type="curve" smooth="yes" name="hr02"/>
      <point x="798" y="397" smooth="yes"/>
      <point x="773" y="400" smooth="yes"/>
      <point x="762" y="418" type="curve" smooth="yes"/>
      <point x="756" y="428" smooth="yes"/>
      <point x="761" y="450" smooth="yes"/>
      <point x="755" y="460" type="curve" smooth="yes"/>
      <point x="744" y="479" smooth="yes"/>
      <point x="718" y="483" smooth="yes"/>
      <point x="704" y="496" type="curve" smooth="yes"/>
      <point x="692" y="508" smooth="yes"/>
      <point x="694" y="526" smooth="yes"/>
      <point x="681" y="535" type="curve" smooth="yes"/>
      <point x="667" y="545" smooth="yes"/>
      <point x="651" y="542" smooth="yes"/>
      <point x="636" y="550" type="curve" smooth="yes"/>
      <point x="617" y="560" smooth="yes"/>
      <point x="615" y="586" smooth="yes"/>
      <point x="588" y="586" type="curve" smooth="yes"/>
      <point x="578" y="586" smooth="yes"/>
      <point x="568" y="583" smooth="yes"/>
      <point x="560" y="583" type="curve" smooth="yes" name="hr03"/>
      <point x="536" y="583" smooth="yes"/>
      <point x="529" y="608" smooth="yes"/>
      <point x="503" y="608" type="curve" smooth="yes"/>
      <point x="489" y="608" smooth="yes"/>
      <point x="472" y="596" smooth="yes"/>
      <point x="458" y="596" type="curve" smooth="yes"/>
      <point x="445" y="596" smooth="yes"/>
      <point x="427" y="608" smooth="yes"/>
      <point x="414" y="608" type="curve" smooth="yes"/>
      <point x="392" y="608" smooth="yes"/>
      <point x="384" y="585" smooth="yes"/>
      <point x="359" y="585" type="curve" smooth="yes" name="hr04"/>
      <point x="350" y="585" smooth="yes"/>
      <point x="341" y="587" smooth="yes"/>
      <point x="333" y="587" type="curve" smooth="yes"/>
      <point x="308" y="586" smooth="yes"/>
      <point x="301" y="558" smooth="yes"/>
      <point x="284" y="549" type="curve" smooth="yes"/>
      <point x="268" y="541" smooth="yes"/>
      <point x="246" y="543" smooth="yes"/>
      <point x="233" y="532" type="curve" smooth="yes"/>
      <point x="222" y="522" smooth="yes"/>
      <point x="218" y="501" smooth="yes"/>
      <point x="208" y="491" type="curve" smooth="yes"/>
      <point x="197" y="480" smooth="yes"/>
      <point x="176" y="480" smooth="yes"/>
      <point x="168" y="467" type="curve" smooth="yes"/>
      <point x="161" y="456" smooth="yes"/>
      <point x="164" y="435" smooth="yes"/>
      <point x="157" y="424" type="curve" smooth="yes"/>
      <point x="147" y="407" smooth="yes"/>
      <point x="122" y="401" smooth="yes"/>
      <point x="122" y="376" type="curve" smooth="yes"/>
      <point x="122" y="368" smooth="yes"/>
      <point x="123" y="359" smooth="yes"/>
      <point x="123" y="351" type="curve" smooth="yes"/>
      <point x="123" y="332" smooth="yes"/>
      <point x="98" y="311" smooth="yes"/>
      <point x="98" y="290" type="curve" smooth="yes"/>
      <point x="98" y="275" smooth="yes"/>
      <point x="110" y="265" smooth="yes"/>
      <point x="110" y="248" type="curve" smooth="yes"/>
      <point x="110" y="233" smooth="yes"/>
      <point x="98" y="218" smooth="yes"/>
      <point x="98" y="204" type="curve" smooth="yes"/>
      <point x="98" y="183" smooth="yes"/>
      <point x="123" y="168" smooth="yes"/>
      <point x="123" y="149" type="curve" smooth="yes"/>
      <point x="123" y="141" smooth="yes"/>
      <point x="120" y="133" smooth="yes"/>
      <point x="120" y="124" type="curve" smooth="yes"/>
      <point x="120" y="98" smooth="yes"/>
      <point x="146" y="87" smooth="yes"/>
      <point x="154" y="75" type="curve" smooth="yes"/>
      <point x="165" y="57" smooth="yes"/>
      <point x="158" y="46" smooth="yes"/>
      <point x="169" y="28" type="curve" smooth="yes"/>
      <point x="179" y="12" smooth="yes"/>
      <point x="195" y="15" smooth="yes"/>
      <point x="208" y="4" type="curve" smooth="yes"/>
      <point x="221" y="-7" smooth="yes"/>
      <point x="220" y="-31" smooth="yes"/>
      <point x="238" y="-42" type="curve" smooth="yes"/>
      <point x="254" y="-52" smooth="yes"/>
      <point x="261" y="-43" smooth="yes"/>
      <point x="284" y="-55" type="curve" smooth="yes"/>
      <point x="297" y="-62" smooth="yes"/>
      <point x="309" y="-91" smooth="yes"/>
      <point x="335" y="-91" type="curve" smooth="yes"/>
      <point x="342" y="-91" smooth="yes"/>
      <point x="351" y="-89" smooth="yes"/>
      <point x="359" y="-89" type="curve" smooth="yes"/>
      <point x="383" y="-89" smooth="yes"/>
      <point x="394" y="-114" smooth="yes"/>
      <point x="414" y="-114" type="curve" smooth="yes"/>
      <point x="429" y="-114" smooth="yes"/>
      <point x="444" y="-102" smooth="yes"/>
      <point x="460" y="-102" type="curve" smooth="yes"/>
      <point x="475" y="-102" smooth="yes"/>
      <point x="491" y="-112" smooth="yes"/>
      <point x="506" y="-112" type="curve" smooth="yes"/>
      <point x="523" y="-112" smooth="yes"/>
      <point x="536" y="-94" smooth="yes"/>
    </contour>
    <contour>
      <point x="528" y="3" type="curve" smooth="yes"/>
      <point x="515" y="0" smooth="yes"/>
      <point x="505" y="-13" smooth="yes"/>
      <point x="493" y="-13" type="curve" smooth="yes"/>
      <point x="482" y="-13" smooth="yes"/>
      <point x="471" y="-6" smooth="yes"/>
      <point x="460" y="-6" type="curve" smooth="yes" name="hr05"/>
      <point x="448" y="-6"/>
      <point x="436" y="-15"/>
      <point x="424" y="-15" type="curve"/>
      <point x="410" y="-13" smooth="yes"/>
      <point x="403" y="3" smooth="yes"/>
      <point x="384" y="3" type="curve" smooth="yes"/>
      <point x="379" y="3" smooth="yes"/>
      <point x="374" y="2" smooth="yes"/>
      <point x="369" y="2" type="curve" smooth="yes"/>
      <point x="350" y="2" smooth="yes"/>
      <point x="343" y="23" smooth="yes"/>
      <point x="332" y="28" type="curve" smooth="yes"/>
      <point x="315" y="37" smooth="yes"/>
      <point x="310" y="29" smooth="yes"/>
      <point x="299" y="37" type="curve" smooth="yes"/>
      <point x="286" y="45" smooth="yes"/>
      <point x="287" y="63" smooth="yes"/>
      <point x="277" y="71" type="curve" smooth="yes"/>
      <point x="268" y="79" smooth="yes"/>
      <point x="256" y="77" smooth="yes"/>
      <point x="249" y="88" type="curve" smooth="yes"/>
      <point x="241" y="101" smooth="yes"/>
      <point x="246" y="110" smooth="yes"/>
      <point x="238" y="123" type="curve" smooth="yes"/>
      <point x="233" y="132" smooth="yes"/>
      <point x="213" y="139" smooth="yes"/>
      <point x="213" y="158" type="curve" smooth="yes"/>
      <point x="213" y="163" smooth="yes"/>
      <point x="215" y="169" smooth="yes"/>
      <point x="215" y="174" type="curve" smooth="yes"/>
      <point x="215" y="189" smooth="yes"/>
      <point x="198" y="200" smooth="yes"/>
      <point x="198" y="215" type="curve" smooth="yes"/>
      <point x="198" y="226" smooth="yes"/>
      <point x="206" y="237" smooth="yes"/>
      <point x="206" y="248" type="curve" smooth="yes"/>
      <point x="206" y="260" smooth="yes"/>
      <point x="198" y="267" smooth="yes"/>
      <point x="198" y="278" type="curve" smooth="yes"/>
      <point x="198" y="294" smooth="yes"/>
      <point x="215" y="308" smooth="yes"/>
      <point x="215" y="324" type="curve" smooth="yes"/>
      <point x="215" y="329" smooth="yes"/>
      <point x="214" y="335" smooth="yes"/>
      <point x="214" y="340" type="curve" smooth="yes"/>
      <point x="214" y="359" smooth="yes"/>
      <point x="233" y="363" smooth="yes"/>
      <point x="240" y="376" type="curve" smooth="yes"/>
      <point x="245" y="384" smooth="yes"/>
      <point x="243" y="399" smooth="yes"/>
      <point x="248" y="407" type="curve" smooth="yes"/>
      <point x="255" y="416" smooth="yes"/>
      <point x="269" y="416" smooth="yes"/>
      <point x="277" y="424" type="curve" smooth="yes"/>
      <point x="285" y="432" smooth="yes"/>
      <point x="287" y="447" smooth="yes"/>
      <point x="296" y="454" type="curve" smooth="yes"/>
      <point x="305" y="462" smooth="yes"/>
      <point x="321" y="460" smooth="yes"/>
      <point x="332" y="466" type="curve" smooth="yes"/>
      <point x="345" y="472" smooth="yes"/>
      <point x="349" y="493" smooth="yes"/>
      <point x="368" y="493" type="curve" smooth="yes"/>
      <point x="374" y="493" smooth="yes"/>
      <point x="379" y="492" smooth="yes"/>
      <point x="385" y="492" type="curve" smooth="yes"/>
      <point x="404" y="492" smooth="yes"/>
      <point x="411" y="509" smooth="yes"/>
      <point x="427" y="509" type="curve" smooth="yes"/>
      <point x="437" y="509" smooth="yes"/>
      <point x="449" y="500" smooth="yes"/>
      <point x="459" y="500" type="curve" smooth="yes"/>
      <point x="469" y="500" smooth="yes"/>
      <point x="481" y="509" smooth="yes"/>
      <point x="492" y="509" type="curve" smooth="yes"/>
      <point x="511" y="509" smooth="yes"/>
      <point x="514" y="491" smooth="yes"/>
      <point x="533" y="491" type="curve" smooth="yes"/>
      <point x="539" y="491" smooth="yes"/>
      <point x="546" y="493" smooth="yes"/>
      <point x="553" y="493" type="curve" smooth="yes"/>
      <point x="573" y="493" smooth="yes"/>
      <point x="574" y="474" smooth="yes"/>
      <point x="587" y="467" type="curve" smooth="yes"/>
      <point x="599" y="460" smooth="yes"/>
      <point x="610" y="464" smooth="yes"/>
      <point x="620" y="456" type="curve" smooth="yes"/>
      <point x="630" y="449" smooth="yes"/>
      <point x="628" y="436" smooth="yes"/>
      <point x="637" y="428" type="curve" smooth="yes"/>
      <point x="647" y="418" smooth="yes"/>
      <point x="666" y="415" smooth="yes"/>
      <point x="674" y="402" type="curve" smooth="yes"/>
      <point x="678" y="394" smooth="yes"/>
      <point x="675" y="379" smooth="yes"/>
      <point x="679" y="371" type="curve" smooth="yes"/>
      <point x="687" y="357" smooth="yes"/>
      <point x="705" y="356" smooth="yes"/>
      <point x="705" y="335" type="curve" smooth="yes"/>
      <point x="705" y="329" smooth="yes"/>
      <point x="704" y="323" smooth="yes"/>
      <point x="704" y="318" type="curve" smooth="yes"/>
      <point x="704" y="300" smooth="yes"/>
      <point x="722" y="289" smooth="yes"/>
      <point x="722" y="273" type="curve" smooth="yes"/>
      <point x="722" y="264" smooth="yes"/>
      <point x="714" y="254" smooth="yes"/>
      <point x="714" y="245" type="curve" smooth="yes"/>
      <point x="714" y="234"/>
      <point x="722" y="223"/>
      <point x="722" y="213" type="curve"/>
      <point x="719" y="199" smooth="yes"/>
      <point x="704" y="196" smooth="yes"/>
      <point x="704" y="177" type="curve" smooth="yes"/>
      <point x="704" y="171" smooth="yes"/>
      <point x="705" y="164" smooth="yes"/>
      <point x="705" y="157" type="curve" smooth="yes"/>
      <point x="705" y="133" smooth="yes"/>
      <point x="689" y="136" smooth="yes"/>
      <point x="681" y="122" type="curve" smooth="yes"/>
      <point x="675" y="111" smooth="yes"/>
      <point x="675" y="94" smooth="yes"/>
      <point x="668" y="84" type="curve" smooth="yes"/>
      <point x="661" y="76" smooth="yes"/>
      <point x="649" y="76" smooth="yes"/>
      <point x="642" y="68" type="curve" smooth="yes"/>
      <point x="634" y="60" smooth="yes"/>
      <point x="630" y="45" smooth="yes"/>
      <point x="620" y="38" type="curve" smooth="yes"/>
      <point x="611" y="31"/>
      <point x="595" y="30"/>
      <point x="585" y="24" type="curve"/>
      <point x="573" y="19" smooth="yes"/>
      <point x="572" y="3" smooth="yes"/>
      <point x="552" y="3" type="curve" smooth="yes"/>
      <point x="547" y="3" smooth="yes"/>
      <point x="542" y="4" smooth="yes"/>
      <point x="537" y="4" type="curve" smooth="yes"/>
      <point x="534" y="4" smooth="yes"/>
      <point x="531" y="4" smooth="yes"/>
    </contour>
    <contour>
      <point x="460" y="417" type="curve" smooth="yes"/>
      <point x="366" y="417" smooth="yes"/>
      <point x="290" y="341" smooth="yes"/>
      <point x="290" y="247" type="curve" smooth="yes"/>
      <point x="290" y="153" smooth="yes"/>
      <point x="366" y="77" smooth="yes"/>
      <point x="460" y="77" type="curve" smooth="yes"/>
      <point x="554" y="77" smooth="yes"/>
      <point x="630" y="153" smooth="yes"/>
      <point x="630" y="247" type="curve" smooth="yes"/>
      <point x="630" y="341" smooth="yes"/>
      <point x="554" y="417" smooth="yes"/>
    </contour>
    <contour>
      <point x="503" y="292" type="line"/>
      <point x="503" y="117" type="line"/>
      <point x="418" y="117" type="line"/>
      <point x="418" y="292" type="line"/>
      <point x="364" y="292" type="line"/>
      <point x="364" y="360" type="line"/>
      <point x="555" y="360" type="line"/>
      <point x="555" y="292" type="line"/>
    </contour>
  </outline>
</glyph>
<glyph name="acute.case" format="1">
  <advance width="310"/>
  <outline>
    <contour>
      <point x="85" y="785" type="line" name="hr00"/>
      <point x="268" y="923" type="line"/>
      <point x="214" y="987" type="line"/>
      <point x="46" y="831" type="line"/>
    </contour>
  </outline>
</glyph>
<glyph name="barra" format="1">
  <advance width="390"/>
  <outline>
    <contour>
      <point x="390" y="312" type="line" name="hr00"/>
      <point x="390" y="372" type="line"/>
      <point x="0" y="372" type="line"/>
      <point x="0" y="312" type="line"/>
    </contour>
  </outline>
</glyph>
<glyph name="cedilla.alt" format="1">
  <advance width="293"/>
  <outline>
    <contour>
      <point x="172" y="15" type="line" name="hr00"/>
      <point x="124" y="15" type="line"/>
      <point x="99" y="-87" type="line"/>
      <point x="175" y="-97" smooth="yes"/>
      <point x="195" y="-115" smooth="yes"/>
      <point x="195" y="-150" type="curve" smooth="yes"/>
      <point x="195" y="-179" smooth="yes"/>
      <point x="178" y="-199" smooth="yes"/>
      <point x="149" y="-199" type="curve" smooth="yes"/>
      <point x="123" y="-199"/>
      <point x="112" y="-182"/>
      <point x="112" y="-153" type="curve"/>
      <point x="53" y="-160" type="line"/>
      <point x="56" y="-211" smooth="yes"/>
      <point x="78" y="-252" smooth="yes"/>
      <point x="149" y="-252" type="curve" smooth="yes"/>
      <point x="237" y="-252" smooth="yes"/>
      <point x="266" y="-196" smooth="yes"/>
      <point x="266" y="-150" type="curve" smooth="yes"/>
      <point x="266" y="-95"/>
      <point x="228" y="-62"/>
      <point x="155" y="-52" type="curve"/>
    </contour>
  </outline>
</glyph>
<glyph name="circumflex.case" format="1">
  <advance width="397"/>
  <outline>
    <contour>
      <point x="82" y="792" type="line" name="hr00"/>
      <point x="198" y="888" type="line"/>
      <point x="315" y="792" type="line"/>
      <point x="351" y="828" type="line"/>
      <point x="217" y="981" type="line"/>
      <point x="180" y="981" type="line"/>
      <point x="46" y="828" type="line"/>
    </contour>
  </outline>
</glyph>
<glyph name="ethbar" format="1">
  <advance width="352"/>
  <outline>
    <contour>
      <point x="360" y="339" type="line" name="hr00"/>
      <point x="360" y="391" type="line"/>
      <point x="18" y="391" type="line"/>
      <point x="18" y="339" type="line"/>
    </contour>
  </outline>
</glyph>
<glyph name="grave.case" format="1">
  <advance width="310"/>
  <outline>
    <contour>
      <point x="264" y="831" type="line" name="hr00"/>
      <point x="96" y="987" type="line"/>
      <point x="42" y="923" type="line"/>
      <point x="225" y="785" type="line"/>
    </contour>
  </outline>
</glyph>
<glyph name="macron.case" format="1">
  <advance width="354"/>
  <outline>
    <contour>
      <point x="48" y="848" type="line" name="hr00"/>
      <point x="306" y="848" type="line"/>
      <point x="306" y="921" type="line"/>
      <point x="48" y="921" type="line"/>
    </contour>
  </outline>
</glyph>
<glyph name="ring.case" format="1">
  <advance width="270"/>
  <outline>
    <contour>
      <point x="134" y="828" type="curve" smooth="yes" name="hr00"/>
      <point x="96" y="828" smooth="yes"/>
      <point x="90" y="862" smooth="yes"/>
      <point x="90" y="885" type="curve" smooth="yes"/>
      <point x="90" y="909" smooth="yes"/>
      <point x="96" y="942" smooth="yes"/>
      <point x="134" y="942" type="curve" smooth="yes"/>
      <point x="175" y="942" smooth="yes"/>
      <point x="181" y="909" smooth="yes"/>
      <point x="181" y="885" type="curve" smooth="yes"/>
      <point x="181" y="862" smooth="yes"/>
      <point x="175" y="828" smooth="yes"/>
    </contour>
    <contour>
      <point x="134" y="781" type="curve" smooth="yes"/>
      <point x="223" y="781" smooth="yes"/>
      <point x="238" y="841" smooth="yes"/>
      <point x="238" y="885" type="curve" smooth="yes"/>
      <point x="238" y="929" smooth="yes"/>
      <point x="223" y="990" smooth="yes"/>
      <point x="134" y="990" type="curve" smooth="yes"/>
      <point x="48" y="990" smooth="yes"/>
      <point x="32" y="929" smooth="yes"/>
      <point x="32" y="885" type="curve" smooth="yes"/>
      <point x="32" y="841" smooth="yes"/>
      <point x="48" y="781" smooth="yes"/>
    </contour>
  </outline>
</glyph>
<glyph name="tilde.case" format="1">
  <advance width="406"/>
  <outline>
    <contour>
      <point x="276" y="833" type="curve" smooth="yes"/>
      <point x="316" y="833"/>
      <point x="347" y="857"/>
      <point x="368" y="932" type="curve"/>
      <point x="312" y="950" type="line"/>
      <point x="302" y="920" smooth="yes"/>
      <point x="291" y="906" smooth="yes"/>
      <point x="266" y="906" type="curve" smooth="yes"/>
      <point x="236" y="906" smooth="yes"/>
      <point x="176" y="942" smooth="yes"/>
      <point x="130" y="942" type="curve" smooth="yes" name="hr01"/>
      <point x="90" y="942"/>
      <point x="59" y="918"/>
      <point x="38" y="843" type="curve"/>
      <point x="95" y="825" type="line"/>
      <point x="105" y="855" smooth="yes"/>
      <point x="116" y="869" smooth="yes"/>
      <point x="140" y="869" type="curve" smooth="yes"/>
      <point x="171" y="869" smooth="yes"/>
      <point x="230" y="833" smooth="yes"/>
    </contour>
  </outline>
</glyph>
